<svg width="264" height="28" viewBox="0 0 264 28" fill="none" xmlns="http://www.w3.org/2000/svg">
<g clip-path="url(#clip0_9_98)">
<path d="M42 0H4C1.79086 0 0 1.79086 0 4V24C0 26.2091 1.79086 28 4 28H42C44.2091 28 46 26.2091 46 24V4C46 1.79086 44.2091 0 42 0Z" fill="#131735"/>
<path d="M17.3935 10.9429L12.4051 21.3864L7.4187 10.9429H9.62749L12.4051 16.9L15.1865 10.9429H17.3935Z" fill="#6AE69E"/>
<path d="M17.3937 6.4043H7.42163V8.23237H17.3937V6.4043Z" fill="#6AE69E"/>
<path d="M31.5488 6.40332H29.5242V21.1314H31.5488V6.40332Z" fill="#6AE69E"/>
<path d="M36.8664 10.9412V8.23096H34.8417V10.9412H33.1902V12.7692H34.8417V21.1306H36.8664V12.7692C36.8664 12.7692 37.4753 12.7692 37.6301 12.7692C38.0889 12.7692 38.5043 12.4995 38.7076 12.0753C38.7957 11.8916 39.2495 10.9412 39.2495 10.9412H36.8664Z" fill="#6AE69E"/>
<path d="M22.5764 10.8374C19.665 10.8374 17.3049 13.1634 17.3049 16.033C17.3049 18.9026 19.665 21.2287 22.5764 21.2287C25.4878 21.2287 27.8479 18.9026 27.8479 16.033C27.8479 13.1634 25.4878 10.8374 22.5764 10.8374ZM22.5764 19.2778C20.7684 19.2778 19.303 17.8252 19.303 16.033C19.303 14.2408 20.7687 12.7883 22.5764 12.7883C24.3844 12.7883 25.8498 14.2408 25.8498 16.033C25.8498 17.8252 24.3841 19.2778 22.5764 19.2778Z" fill="#6AE69E"/>
<mask id="mask0_9_98" style="mask-type:luminance" maskUnits="userSpaceOnUse" x="62" y="0" width="45" height="28">
<path d="M106.333 0H62V28H106.333V0Z" fill="white"/>
</mask>
<g mask="url(#mask0_9_98)">
<path d="M103.87 0C105.225 0 106.333 1.14545 106.333 2.54546V25.4546C106.333 26.8546 105.225 28 103.87 28H64.463C63.1083 28 62 26.8546 62 25.4546V2.54546C62 1.14545 63.1083 0 64.463 0H103.87Z" fill="white"/>
<path d="M91 4.90079H76.6313V16.9149L83.8157 24.0992V9.67021L91 16.8545V4.90079Z" fill="#009286"/>
<path d="M91 16.9149L83.8157 24.0992V9.67021L91 16.9149Z" fill="#F3C000"/>
<path opacity="0.25" d="M103.491 28H64.842C63.274 28 62 26.7435 62 25.2V2.8C62 1.2565 63.274 0 64.842 0H103.491C105.059 0 106.333 1.2565 106.333 2.8V25.2C106.333 26.7435 105.059 28 103.491 28ZM64.842 1.12C63.9017 1.12 63.1363 1.87367 63.1363 2.8V25.2C63.1363 26.1263 63.9017 26.88 64.842 26.88H103.491C104.432 26.88 105.197 26.1263 105.197 25.2V2.8C105.197 1.87367 104.432 1.12 103.491 1.12H64.842Z" fill="#A7A8AB"/>
</g>
<mask id="mask1_9_98" style="mask-type:luminance" maskUnits="userSpaceOnUse" x="114" y="0" width="45" height="28">
<path d="M158.666 0H114.333V28H158.666V0Z" fill="white"/>
</mask>
<g mask="url(#mask1_9_98)">
<path d="M156.204 0C157.558 0 158.667 1.14545 158.667 2.54546V25.4546C158.667 26.8546 157.558 28 156.204 28H116.796C115.442 28 114.333 26.8546 114.333 25.4546V2.54546C114.333 1.14545 115.442 0 116.796 0H156.204Z" fill="white"/>
<g clip-path="url(#clip1_9_98)">
<path d="M129.778 13.1215C129.325 13.1215 128.992 13.1646 128.751 13.3046L129.113 11H127.975L126.846 17.8923H127.683H127.703H127.834L128.005 17.5585C128.096 17.6877 128.358 17.9677 128.861 17.9677C130.222 17.9677 131.008 16.9123 131.219 15.5554C131.491 13.8754 130.725 13.1215 129.778 13.1215ZM130.03 15.5123C129.889 16.6108 129.365 17.1062 128.751 17.1062C128.368 17.1062 128.146 16.8262 128.217 16.3738L128.428 14.9631C128.509 14.4354 128.801 14.0154 129.325 14.0262H129.335C129.929 14.0154 130.181 14.4354 130.03 15.5123Z" fill="#0006AD"/>
<path d="M125.254 13.1108C123.975 13.1108 123.411 13.7569 123.411 13.7569L123.803 14.4677C123.803 14.4677 124.217 13.9508 125.043 13.9508C125.506 13.9508 125.516 14.2092 125.466 14.4677L125.375 15.0815C123.743 15.0277 122.897 15.4154 122.705 16.5677C122.544 17.5154 123.209 17.9785 123.955 17.9785C124.337 17.9785 124.65 17.9246 125.033 17.5692L125.083 17.9031H126.06L126.07 17.8277L126.413 15.76L126.625 14.4892C126.796 13.4554 126.292 13.1108 125.254 13.1108ZM124.287 17.2461C123.864 17.2461 123.703 16.9338 123.773 16.5138C123.874 15.9538 124.267 15.7169 125.264 15.7169C125.093 17.1061 124.922 17.2461 124.287 17.2461Z" fill="#0006AD"/>
<path d="M147.975 13.1215C147.179 13.1215 146.877 13.4985 146.574 13.8108L146.605 13.2292L145.607 13.24L144.861 17.9031H146.01L146.383 15.4369C146.514 14.5862 147.068 13.94 147.582 13.94C148.156 13.94 148.156 14.2954 148.055 14.8231L147.552 17.9138H148.69L149.204 14.6938C149.395 13.6277 149.033 13.1215 147.975 13.1215Z" fill="#0006AD"/>
<path d="M152.146 15.1031L154 13.1323H152.67L151.128 14.8769H151.108L151.723 11.0215H150.615L149.496 17.9031H150.625L150.736 17.2139L150.967 15.6954C151.562 15.6954 151.904 15.76 152.166 17.0308L152.348 17.8815H153.506C153.506 17.8815 153.224 16.5785 153.033 16.0723C152.821 15.5554 152.599 15.2 152.146 15.1031Z" fill="#0006AD"/>
<path d="M143.3 13.1108C142.02 13.1108 141.456 13.7569 141.456 13.7569L141.849 14.4677C141.849 14.4677 142.262 13.9508 143.088 13.9508C143.552 13.9508 143.562 14.2092 143.511 14.4677L143.421 15.0815C141.778 15.0277 140.932 15.4154 140.731 16.5677C140.569 17.5154 141.234 17.9785 141.98 17.9785C142.363 17.9785 142.675 17.9246 143.058 17.5692L143.108 17.9031H144.096L144.106 17.8277L144.448 15.76L144.66 14.4892C144.841 13.4661 144.338 13.1108 143.3 13.1108ZM142.343 17.2461C141.919 17.2461 141.758 16.9338 141.829 16.5138C141.93 15.9538 142.322 15.7169 143.32 15.7169C143.139 17.1061 142.967 17.2461 142.343 17.2461Z" fill="#0006AD"/>
<path d="M139.058 13.1215C138.605 13.1215 138.272 13.1646 138.03 13.3046L138.393 11H137.264L136.136 17.8923H136.972H136.992H137.123L137.295 17.5585C137.385 17.6877 137.647 17.9677 138.151 17.9677C139.511 17.9677 140.297 16.9123 140.509 15.5554C140.781 13.8862 140.025 13.1215 139.058 13.1215ZM139.32 15.5231C139.179 16.6215 138.655 17.1169 138.04 17.1169C137.657 17.1169 137.436 16.8369 137.506 16.3846L137.718 14.9738C137.798 14.4462 138.091 14.0262 138.615 14.0369H138.625C139.209 14.0154 139.461 14.4462 139.32 15.5231Z" fill="#0006AD"/>
<path d="M122.615 13.4338C122.907 12.1523 122.373 11.1508 120.851 11.1723H119.108L118 17.8923H119.139L119.592 15.2C120.64 15.1677 120.771 15.4477 120.972 16.7508L121.154 17.8923H122.343C122.202 17.1923 122.111 16.5462 122 16.0185C121.879 15.4692 121.688 15.0385 121.194 14.8338L121.244 14.8231C122.071 14.6185 122.504 13.8969 122.615 13.4338ZM120.408 14.22H119.733L120.086 12.0985H120.7C121.426 12.0985 121.567 12.6046 121.476 13.2077C121.375 13.8 120.942 14.22 120.408 14.22Z" fill="#0006AD"/>
<path d="M134.373 13.0892C132.62 13.0892 131.874 14.1662 131.693 15.9323C131.582 17.0523 132.227 18 133.305 18C134.977 18 135.652 17.1385 135.924 15.3077C136.116 14.1662 135.683 13.0892 134.373 13.0892ZM134.746 15.3938C134.504 16.7615 133.96 17.1492 133.526 17.1492C132.922 17.1492 132.771 16.5031 132.912 15.6846C133.134 14.3492 133.617 13.9723 134.141 13.9723C134.917 13.9723 134.836 14.8985 134.746 15.3938Z" fill="#0006AD"/>
</g>
<path opacity="0.25" d="M155.825 28H117.175C115.607 28 114.333 26.7435 114.333 25.2V2.8C114.333 1.2565 115.607 0 117.175 0H155.825C157.393 0 158.667 1.2565 158.667 2.8V25.2C158.667 26.7435 157.393 28 155.825 28ZM117.175 1.12C116.235 1.12 115.47 1.87367 115.47 2.8V25.2C115.47 26.1263 116.235 26.88 117.175 26.88H155.825C156.765 26.88 157.53 26.1263 157.53 25.2V2.8C157.53 1.87367 156.765 1.12 155.825 1.12H117.175Z" fill="#A7A8AB"/>
</g>
<mask id="mask2_9_98" style="mask-type:luminance" maskUnits="userSpaceOnUse" x="166" y="0" width="45" height="28">
<path d="M210.666 0H166.333V28H210.666V0Z" fill="white"/>
</mask>
<g mask="url(#mask2_9_98)">
<path d="M208.204 0C209.558 0 210.667 1.14545 210.667 2.54546V25.4546C210.667 26.8546 209.558 28 208.204 28H168.796C167.442 28 166.333 26.8546 166.333 25.4546V2.54546C166.333 1.14545 167.442 0 168.796 0H208.204Z" fill="white"/>
<path fill-rule="evenodd" clip-rule="evenodd" d="M188.4 8.16621C188.144 9.92378 187.94 11.4035 187.571 13.708C188.567 13.6869 190.829 14.0737 191.327 10.9243C191.739 8.30425 189.902 8.06158 188.4 8.16621Z" fill="url(#paint0_linear_9_98)"/>
<path fill-rule="evenodd" clip-rule="evenodd" d="M197.031 20.8372C197.418 21.6786 197.028 22.7425 196.219 23.1706C195.755 23.4168 195.224 23.6454 194.695 23.7738C193.821 23.9773 192.928 24.0905 192.029 24.1114C190.593 24.1114 189.153 23.3096 188.532 22.3336C188.372 22.6704 187.793 23.3474 186.778 23.6656C186.137 23.8679 185.364 24.1114 183.751 24.1097C182.306 24.1088 181.481 23.4696 181.046 22.9332C180.351 22.0804 180.249 20.9972 180.385 20.2674L180.392 20.2323C180.938 17.5638 181.683 12.7122 182.027 10.2812L182.03 10.2574C182.124 9.58306 182.22 8.9087 182.277 8.22993C182.305 7.88791 182.324 7.54414 182.327 7.20124C182.331 6.8768 182.3 6.55325 182.303 6.22881C182.306 5.92284 182.357 5.61335 182.504 5.34255C182.743 4.90557 183.18 4.56092 183.643 4.41057C184.151 4.24528 184.681 4.17933 185.208 4.11955C185.748 4.05653 186.288 4.00377 186.83 3.96128C187.49 3.91398 188.152 3.88993 188.814 3.88919C189.946 3.88831 191.086 3.90677 192.202 4.13098C193.34 4.35957 194.488 4.79655 195.386 5.56236C196.001 6.08726 196.489 6.74931 196.856 7.4738C197.177 8.11212 197.307 8.78385 197.385 9.29731C197.523 10.2189 197.487 11.1572 197.278 12.066C197.113 12.7286 196.834 13.3593 196.454 13.9317C196.027 14.5788 195.479 15.1662 194.78 15.7253C195.205 16.9299 196.315 19.2827 197.031 20.8372ZM184.31 6.35102C184.337 6.79767 184.341 7.24784 184.321 7.69624C184.301 8.15432 184.261 8.61064 184.208 9.06608C184.157 9.51976 184.095 9.97168 184.032 10.4236L184.011 10.5713C183.812 11.9842 183.603 13.3954 183.384 14.8039C183.153 16.2845 182.894 17.7572 182.636 19.2317C182.516 19.9193 182.246 20.8002 182.615 21.4561C182.943 22.0417 183.785 22.1129 184.372 22.054C186.51 21.8412 186.85 21.3779 186.85 21.3779C186.424 20.9172 186.795 18.8176 187.224 15.9953H188.743L190.334 20.6859C190.334 20.6859 190.803 22.1393 192.106 22.069C193.775 21.9793 195.003 21.6074 195.18 21.4008C194.666 21.1212 193.196 17.5374 192.395 14.9059C192.783 14.6755 193.159 14.425 193.514 14.1445C193.998 13.7594 194.447 13.3154 194.791 12.794C195.038 12.4194 195.226 12.0071 195.334 11.5692C195.391 11.338 195.423 11.0962 195.443 10.8597C195.479 10.4429 195.465 10.0209 195.403 9.60768C195.343 9.21027 195.254 8.76802 195.072 8.40929C194.734 7.73844 194.255 7.15288 193.602 6.77833C192.5 6.14704 191.23 6.02659 189.992 5.96065C188.649 5.88785 187.303 5.93081 185.968 6.08901C185.818 6.1066 184.304 6.23672 184.31 6.35102Z" fill="url(#paint1_linear_9_98)"/>
<path opacity="0.25" d="M207.825 28H169.175C167.607 28 166.333 26.7435 166.333 25.2V2.8C166.333 1.2565 167.607 0 169.175 0H207.825C209.393 0 210.667 1.2565 210.667 2.8V25.2C210.667 26.7435 209.393 28 207.825 28ZM169.175 1.12C168.235 1.12 167.47 1.87367 167.47 2.8V25.2C167.47 26.1263 168.235 26.88 169.175 26.88H207.825C208.765 26.88 209.53 26.1263 209.53 25.2V2.8C209.53 1.87367 208.765 1.12 207.825 1.12H169.175Z" fill="#A7A8AB"/>
</g>
<mask id="mask3_9_98" style="mask-type:luminance" maskUnits="userSpaceOnUse" x="219" y="0" width="45" height="28">
<path d="M263.333 0H219V28H263.333V0Z" fill="white"/>
</mask>
<g mask="url(#mask3_9_98)">
<path d="M260.87 0C262.225 0 263.333 1.14545 263.333 2.54546V25.4546C263.333 26.8546 262.225 28 260.87 28H221.463C220.108 28 219 26.8546 219 25.4546V2.54546C219 1.14545 220.108 0 221.463 0H260.87Z" fill="white"/>
<path opacity="0.25" d="M260.491 28H221.842C220.274 28 219 26.7435 219 25.2V2.8C219 1.2565 220.274 0 221.842 0H260.491C262.059 0 263.333 1.2565 263.333 2.8V25.2C263.333 26.7435 262.059 28 260.491 28ZM221.842 1.12C220.902 1.12 220.136 1.87367 220.136 2.8V25.2C220.136 26.1263 220.902 26.88 221.842 26.88H260.491C261.432 26.88 262.197 26.1263 262.197 25.2V2.8C262.197 1.87367 261.432 1.12 260.491 1.12H221.842Z" fill="#A7A8AB"/>
</g>
<g clip-path="url(#clip2_9_98)">
<path d="M246.985 24H234.99C232.802 24 231 22.2239 231 20.0103V7.9897C231 5.8018 232.802 4 234.99 4H246.985C249.198 4 250.974 5.8018 250.974 7.9897V19.9846C251 22.2239 249.198 24 246.985 24Z" fill="#FF6200"/>
<path d="M250.46 21.3745C250.305 21.2973 250.305 21.2973 250.048 21.2973C249.97 21.2201 249.79 21.2201 249.713 21.2201C249.765 21.5032 249.867 21.7606 249.97 22.0438C250.022 22.1725 250.125 22.2754 250.254 22.3526C250.382 22.1725 250.511 21.9665 250.614 21.7606C250.511 21.5804 250.46 21.4517 250.46 21.3745ZM247.808 23.9228C247.757 23.7169 247.705 23.4852 247.68 23.3308V22.018C247.345 22.0952 247.268 22.1725 247.191 22.1725C246.933 22.3269 246.779 22.4041 246.779 22.5843C246.779 22.9189 246.856 23.2278 246.856 23.408C246.856 23.6654 246.856 23.8198 246.933 23.897C247.062 23.9485 247.139 23.9485 247.216 23.9743C247.422 23.9743 247.628 23.9485 247.808 23.9228ZM242.635 22.1982C242.635 22.1982 242.557 21.7864 242.48 21.6319C242.403 21.426 242.248 21.2716 242.068 21.1429C241.991 21.1429 241.837 20.9884 241.734 21.0656C241.734 21.0656 241.656 21.7091 241.579 21.7864C241.734 22.0438 241.914 22.1982 241.991 22.4299C242.068 22.6615 242.145 22.9961 242.326 23.2535C242.377 22.9189 242.635 22.7645 242.635 22.1982ZM249.301 22.6873C249.147 22.5328 249.456 21.9408 249.044 21.9408C248.889 21.8636 248.4 21.6834 248.4 21.6834C248.323 21.9408 248.323 22.4041 248.4 22.6615C248.4 22.8417 248.632 23.2793 248.812 23.5367C249.018 23.4337 249.224 23.305 249.43 23.1506C249.378 23.0219 249.327 22.8674 249.301 22.6873ZM248.735 15.583C249.07 15.583 248.323 15.2484 248.014 15.0167C247.963 15.0167 247.886 14.991 247.86 14.9395C247.705 14.7851 247.602 14.4504 247.293 14.3732C247.242 14.3732 247.216 14.3475 247.216 14.296C247.216 14.0643 247.139 13.0862 247.139 13.0862C247.293 13.4208 247.628 13.4208 247.783 13.4208C248.117 13.4208 248.349 13.3436 248.503 13.0862C248.503 13.009 248.58 12.8546 248.658 12.8546C248.812 12.7773 248.992 12.7001 249.07 12.5199C249.147 12.5199 249.224 12.3655 249.224 12.3655C248.503 12.2368 246.959 12.2368 246.959 12.2368C246.701 12.314 246.47 12.5714 246.47 12.6486C246.47 12.6486 246.624 13.5495 246.624 13.6268C246.624 14.193 246.701 14.193 246.701 14.7593C246.959 14.9138 247.036 14.9138 247.191 15.0939C247.268 15.2484 247.345 15.4286 247.448 15.583C247.783 15.7375 248.169 15.9176 248.426 16.1493C248.503 16.175 248.735 15.7632 248.735 15.583ZM248.246 17.0502C248.014 16.973 247.757 16.7928 247.268 16.8958C247.191 16.973 247.191 16.973 247.191 17.2304C247.602 17.2304 247.834 17.4878 248.169 17.565C248.169 17.5393 248.246 17.1532 248.246 17.0502ZM246.547 11.027C246.701 11.027 246.701 11.3616 246.701 11.5161C247.113 11.5161 247.525 11.5933 247.68 11.4389C248.58 11.027 247.191 10.6924 247.036 10.6924C246.624 10.6152 245.826 10.3578 246.135 10.6924C246.135 10.8726 246.367 10.8726 246.547 11.027ZM248.246 9.97169C248.812 10.1261 249.224 10.4607 249.636 10.9498C249.893 10.9498 250.125 10.7954 250.202 10.538C250.279 10.1261 250.357 9.48262 250.125 9.148C249.97 8.99356 249.893 8.8906 249.481 8.81338C249.173 8.73616 248.812 8.81338 248.58 9.07078C248.426 9.30244 248.169 9.63706 248.246 9.97169ZM244.822 10.6924C244.822 10.538 244.488 10.6152 244.333 10.6924C244.179 10.6924 243.922 10.8468 243.69 11.027C243.458 11.2844 243.278 11.3616 243.278 11.5933H243.69C244.102 11.5933 244.179 11.7477 244.333 11.5161C244.591 11.1815 244.822 11.027 244.822 10.6924ZM244.333 12.6486C244.333 12.4942 244.179 12.314 243.922 12.2368H242.866C242.454 12.2368 242.12 12.2368 241.734 12.314C241.888 12.6486 242.3 12.9575 242.454 13.1377C242.609 13.2921 242.789 13.4723 243.098 13.4723C243.432 13.3951 243.432 13.4723 243.587 13.3951C243.587 13.5495 243.664 13.8069 243.587 13.9614C243.587 14.0386 243.664 14.7079 243.355 14.7851C243.124 14.8623 242.789 15.0425 242.635 15.2741C242.48 15.5058 242.377 15.9176 242.635 16.0978C242.789 16.175 242.969 15.9434 243.201 15.8404C243.458 15.7632 243.432 15.583 243.535 15.3514C243.69 15.1969 244.025 15.094 244.102 14.9395V14.6821C244.179 13.9356 244.179 13.7812 244.256 13.2921C244.256 13.2149 244.333 12.7516 244.333 12.6486ZM243.69 17.0502C243.535 16.973 243.355 16.973 243.201 16.973C243.021 16.973 242.815 16.9987 242.635 17.0502C242.686 17.2046 242.738 17.3848 242.789 17.5393C243.021 17.462 243.124 17.3848 243.278 17.3076C243.278 17.3076 243.613 17.1532 243.69 17.0502ZM241.991 10.4607C242.145 10.3063 242.635 9.97169 242.635 9.97169C242.712 9.97169 242.712 9.89446 242.712 9.81724C242.557 9.25096 242.377 9.25096 242.068 9.07078C241.914 8.94208 241.708 8.8906 241.502 8.91634C241.167 8.99356 240.601 9.17374 240.447 9.6628C240.447 9.74002 240.369 10.0746 240.601 10.3835C240.756 10.7181 241.09 10.9498 241.245 11.13C241.476 11.1042 241.579 10.6924 241.991 10.4607ZM248.735 16.6641C249.353 16.6641 250.099 16.8185 251 17.1789V17.7194C250.099 17.3591 249.275 17.2819 248.838 17.1532V17.7967C249.173 17.8739 249.327 18.0541 249.662 18.1313C249.79 18.1828 250.485 18.5689 251.026 18.852V19.4183C250.048 18.8005 249.353 18.5689 248.529 18.2085C248.375 18.3629 248.297 18.6203 248.04 18.7748C247.963 18.852 247.396 18.3629 247.062 18.2085C246.83 18.0541 246.341 17.9768 246.006 17.8739C245.929 17.8739 245.929 17.7194 245.929 17.6422C245.852 17.3848 245.775 17.1532 245.852 17.0759C246.264 16.9215 246.418 16.5869 246.418 16.3552C246.418 16.1236 246.65 16.4324 246.907 16.3552C247.062 16.2008 247.139 16.0206 247.062 15.8662C247.062 15.7117 246.985 15.5315 246.83 15.5315C246.032 15.1969 245.106 15.1969 244.308 15.5315C244.05 15.6088 244.05 15.9434 244.153 16.175C244.23 16.5097 244.565 16.3295 244.797 16.175C244.874 16.175 244.719 16.4324 244.874 16.6641C245.028 16.9987 245.363 17.0759 245.363 17.1532C245.363 17.4106 245.363 17.4106 245.286 17.565C245.286 17.7194 245.286 17.8996 245.131 17.9768C244.642 18.0541 244.23 18.2085 243.741 18.3887C243.51 18.4659 243.252 18.7233 243.021 18.7233C242.866 18.7233 242.686 18.3887 242.609 18.3115C242.454 18.3115 242.454 18.2342 242.12 18.3115C241.167 18.6976 240.241 19.1609 239.34 19.7014C239.185 19.547 239.263 19.2896 239.185 19.1351C240.086 18.5689 241.039 18.0798 242.043 17.668C242.12 17.5907 242.043 17.3333 241.965 17.1789C241.965 17.1789 241.399 17.1017 240.344 17.4363C239.7 17.5907 238.954 18.0026 238.877 18.0026C238.748 17.7709 238.722 17.5907 238.722 17.3848C239.211 17.1274 239.752 16.9215 240.266 16.7413C240.833 16.5869 241.399 16.5869 241.991 16.4839C241.914 16.4839 241.914 16.3295 241.914 16.2265C241.682 15.7375 241.27 15.3256 240.858 14.9138C240.704 14.5792 240.524 14.193 240.524 14.0129C240.678 13.8584 240.858 14.0901 241.09 14.0901C240.987 13.8069 240.936 13.4981 240.936 13.1892C240.858 12.8546 240.858 12.8546 240.858 12.4685C240.858 11.9794 241.013 11.7477 240.936 11.6448C240.858 11.5676 240.524 11.4131 240.447 11.4131C240.292 11.3359 240.215 11.3359 240.112 11.1557C239.855 10.7439 239.623 10.435 239.623 10.0232C239.623 9.61132 239.777 9.2767 239.958 8.8906C240.035 8.55598 240.447 8.40154 240.704 8.2471C240.961 8.09266 241.193 8.16988 241.425 8.16988C241.991 8.16988 242.48 8.5045 242.892 8.73616C243.175 8.96782 243.381 9.2767 243.458 9.63706H244.179C244.591 9.71428 245.003 9.7915 245.492 10.0489C246.058 9.55984 247.036 9.48262 247.525 9.48262C247.525 8.58172 248.169 8.09266 248.658 8.09266C249.07 8.01544 249.301 7.93822 249.893 8.16988C250.305 8.40154 250.871 9.22522 250.871 9.30244C251.026 9.63706 250.949 10.0489 250.949 10.538C250.897 10.7439 250.871 10.9755 250.871 11.1815C250.794 11.5161 250.382 11.7477 250.151 11.825C250.151 12.3912 249.996 12.7259 249.919 13.2149C249.919 13.4723 249.842 13.704 249.765 13.9356C249.996 13.8584 250.099 13.704 250.331 13.704C250.176 14.7593 249.919 14.6049 249.687 15.0939C249.584 15.4543 249.43 15.7889 249.198 16.0721C249.07 16.2008 248.941 16.3037 248.786 16.4067C248.58 16.4839 248.735 16.5611 248.735 16.6641ZM244.411 22.9189C244.333 22.7645 244.179 22.6615 243.999 22.6873C243.844 22.6873 243.432 22.4299 243.432 22.61C243.021 22.61 243.355 23.0219 243.355 23.2535C243.355 23.4337 243.587 23.7426 243.819 24H244.565C244.539 23.897 244.514 23.7683 244.488 23.6654C244.411 23.408 244.514 23.1763 244.411 22.9189ZM243.046 19.2638C243.124 19.5727 243.227 19.8816 243.381 20.1647C243.458 20.1647 243.535 20.3192 243.613 20.3192C243.767 20.1647 243.947 19.9073 244.179 19.8301V20.1647C244.179 20.4221 244.179 20.5766 244.256 20.8082C244.256 21.0656 244.514 21.0656 244.822 21.0656C245.157 21.0656 245.234 20.4994 245.234 20.4221C245.234 20.4221 245.312 20.7568 245.801 20.9884C245.801 20.9884 246.367 20.9884 246.367 20.9112C246.444 20.4994 246.521 20.4221 246.444 20.0875C246.444 20.0875 246.933 20.4221 247.191 20.731C247.345 20.5766 247.525 20.242 247.525 20.1647C247.68 19.8301 247.68 19.444 247.68 19.1094C247.036 18.6976 246.212 18.6203 245.389 18.6203C244.668 18.6203 243.844 18.6976 243.046 19.2638ZM246.135 22.3526C245.801 22.4299 245.157 22.5328 245.157 22.7645C245.08 22.9961 245.157 23.2535 245.157 23.408C245.234 23.5624 245.234 23.7426 245.234 23.9743V24H245.852C246.006 23.7941 246.135 23.6396 246.212 23.408C246.29 23.1763 246.212 22.7645 246.135 22.3526ZM237.898 9.148C237.744 9.37966 237.744 9.63706 237.744 9.86872C237.744 10.2806 237.821 10.5894 237.898 11.1042C237.564 11.3359 237.409 11.5161 237.075 11.6705C237.152 12.1596 237.229 13.0605 237.229 13.0605C237.384 12.8288 237.384 12.8288 237.564 12.6486C237.898 12.417 238.053 12.2368 238.465 11.9279C238.542 11.7735 238.619 11.8507 238.877 11.6705C238.954 11.5933 239.031 11.5161 239.031 11.4389C239.031 11.2844 238.954 11.1042 238.877 10.9498C238.799 10.7954 238.645 10.3835 238.645 10.3063C238.645 9.6628 238.722 9.48262 238.799 8.91634C238.465 8.81338 238.053 8.81338 237.898 9.148ZM239.031 14.7078C238.207 14.9652 237.641 15.1197 237.487 15.2741C237.075 15.5315 236.92 15.686 236.508 15.9176C236.508 16.4067 236.508 16.4067 236.586 16.6641L236.663 17.6422C236.817 17.3848 237.306 16.8958 237.564 16.5869C237.924 16.175 238.362 15.8404 238.877 15.6088C238.954 15.2741 239.031 15.0167 239.031 14.7078ZM237.487 22.4299C237.487 22.4299 237.744 22.2754 237.744 22.0952C238.156 21.6062 238.645 21.1943 238.722 21.1171C238.568 20.7053 238.49 20.6281 238.233 20.3964C238.156 20.4736 237.744 20.731 237.667 20.8855C237.512 20.9627 237.332 21.0399 237.255 21.1171C237.255 21.2716 237.332 21.3745 237.409 21.529C237.409 21.7091 237.487 22.121 237.487 22.4299ZM240.601 20.731C240.524 20.5766 240.266 20.4736 240.112 20.3964C239.958 20.3964 239.777 20.731 239.777 21.0399C239.803 21.3745 239.855 21.7091 239.932 22.018C239.932 22.0952 240.086 22.1725 240.266 22.2497C240.524 22.4041 240.756 22.5071 240.987 22.6615C240.987 22.6615 240.756 21.9151 240.653 21.529C240.601 21.2973 240.756 20.9627 240.601 20.731ZM241.399 6.62548C241.476 6.77992 242.454 7.37194 242.866 7.6036C243.201 7.861 243.51 7.93822 243.844 8.09266C244.076 7.78378 244.23 7.42342 244.333 7.03732C244.591 7.19176 244.9 7.19176 245.157 7.29472C245.157 7.62934 245.157 7.93822 245.234 8.27284C245.234 8.42728 245.389 8.35006 245.723 8.19562C246.212 8.04118 246.701 7.93822 246.933 7.861C247.499 7.52638 247.834 6.88288 248.323 6.88288C248.735 6.88288 249.456 7.11454 249.636 7.29472C249.867 7.37194 250.048 7.44916 250.279 7.44916C250.511 7.44916 250.717 7.26898 250.897 7.11454C250.871 6.98584 250.846 6.85714 250.794 6.75418C250.151 6.34234 249.43 5.9305 248.735 5.64736C248.246 6.0592 247.911 6.39382 247.68 6.39382C247.422 6.39382 247.602 5.90476 247.602 5.57014C247.371 5.57014 247.191 5.57014 246.959 5.49292C246.804 6.0592 246.701 6.80566 246.315 6.9601C246.212 7.01158 246.109 7.03732 245.981 7.03732V6.36808C245.981 6.29086 246.315 5.72458 246.238 5.64736C246.238 5.64736 245.517 5.8018 245.337 5.90476C245.26 5.98198 244.771 6.23938 244.694 6.23938C244.591 6.21364 244.488 6.16216 244.359 6.16216C244.127 6.00772 243.947 6.00772 243.716 5.82754C243.381 6.80566 243.304 7.03732 243.304 6.88288C243.304 6.88288 242.171 6.13642 241.759 5.64736C240.704 5.8018 240.704 5.98198 239.803 6.29086C239.469 6.62548 238.979 7.01158 238.671 7.52638C238.516 7.861 238.336 8.01544 238.182 8.35006L239.005 8.68468C239.211 8.42728 239.417 8.14414 239.571 7.861C240.112 7.52638 241.09 6.9601 241.399 6.62548ZM236.766 17.9511V18.3629C236.766 18.5174 236.843 19.4183 236.843 19.6757C236.92 19.9331 236.92 20.1647 236.997 20.3964C237.075 20.5508 237.152 20.731 237.152 20.8855C237.255 20.834 237.332 20.731 237.409 20.6281C237.641 20.3707 237.744 20.139 237.898 19.8044C237.821 19.2381 237.641 18.749 237.641 18.5946C237.641 17.9511 237.718 17.7709 237.795 17.3591C237.487 17.5393 237.1 17.7967 236.766 17.9511ZM239.134 13.4723C239.134 12.9833 239.288 12.9833 239.211 12.8288C239.134 12.6744 238.49 12.8288 238.31 12.8288C237.898 12.906 237.178 13.1634 237.178 13.3179C237.1 13.5495 237.1 14.1416 237.1 14.2188C237.178 14.4762 237.178 14.7078 237.255 14.9395C237.487 14.6821 237.59 14.6049 237.744 14.5277C237.821 14.4505 238.722 13.8069 238.799 13.704C238.954 13.5495 239.031 13.6268 239.134 13.4723ZM238.465 23.8198C238.387 23.897 238.336 23.9485 238.233 24H237.924C237.795 23.5882 237.615 23.2021 237.409 22.8417C237.409 22.8417 238.619 22.3526 238.954 22.3526C239.031 22.5071 239.108 22.7645 239.288 22.9189C239.134 23.0991 238.645 23.5882 238.465 23.8198Z" fill="white"/>
</g>
</g>
<defs>
<linearGradient id="paint0_linear_9_98" x1="179.904" y1="25.9923" x2="198.937" y2="7.54945" gradientUnits="userSpaceOnUse">
<stop offset="0.113" stop-color="#0D59EC"/>
<stop offset="0.742" stop-color="#008FE1"/>
<stop offset="1" stop-color="#20AFFF"/>
</linearGradient>
<linearGradient id="paint1_linear_9_98" x1="179.904" y1="25.9927" x2="198.937" y2="7.54986" gradientUnits="userSpaceOnUse">
<stop offset="0.113" stop-color="#0D59EC"/>
<stop offset="0.742" stop-color="#008FE1"/>
<stop offset="1" stop-color="#20AFFF"/>
</linearGradient>
<clipPath id="clip0_9_98">
<rect width="264" height="28" fill="white"/>
</clipPath>
<clipPath id="clip1_9_98">
<rect width="36" height="7" fill="white" transform="translate(118 11)"/>
</clipPath>
<clipPath id="clip2_9_98">
<rect width="20" height="20" fill="white" transform="translate(231 4)"/>
</clipPath>
</defs>
</svg>
