<svg width="264" height="28" viewBox="0 0 264 28" fill="none" xmlns="http://www.w3.org/2000/svg">
<g clip-path="url(#clip0_9_2)">
<path d="M42 0H4C1.79086 0 0 1.79086 0 4V24C0 26.2091 1.79086 28 4 28H42C44.2091 28 46 26.2091 46 24V4C46 1.79086 44.2091 0 42 0Z" fill="#131735"/>
<path d="M17.3935 10.9429L12.4051 21.3864L7.4187 10.9429H9.62749L12.4051 16.9L15.1865 10.9429H17.3935Z" fill="#6AE69E"/>
<path d="M17.3937 6.4043H7.42163V8.23237H17.3937V6.4043Z" fill="#6AE69E"/>
<path d="M31.5488 6.40332H29.5242V21.1314H31.5488V6.40332Z" fill="#6AE69E"/>
<path d="M36.8664 10.9412V8.23096H34.8417V10.9412H33.1902V12.7692H34.8417V21.1306H36.8664V12.7692C36.8664 12.7692 37.4753 12.7692 37.6301 12.7692C38.0889 12.7692 38.5043 12.4995 38.7076 12.0753C38.7957 11.8916 39.2495 10.9412 39.2495 10.9412H36.8664Z" fill="#6AE69E"/>
<path d="M22.5764 10.8374C19.665 10.8374 17.3049 13.1634 17.3049 16.033C17.3049 18.9026 19.665 21.2287 22.5764 21.2287C25.4878 21.2287 27.8479 18.9026 27.8479 16.033C27.8479 13.1634 25.4878 10.8374 22.5764 10.8374ZM22.5764 19.2778C20.7684 19.2778 19.303 17.8252 19.303 16.033C19.303 14.2408 20.7687 12.7883 22.5764 12.7883C24.3844 12.7883 25.8498 14.2408 25.8498 16.033C25.8498 17.8252 24.3841 19.2778 22.5764 19.2778Z" fill="#6AE69E"/>
<mask id="mask0_9_2" style="mask-type:luminance" maskUnits="userSpaceOnUse" x="62" y="0" width="45" height="28">
<path d="M106.333 0H62V28H106.333V0Z" fill="white"/>
</mask>
<g mask="url(#mask0_9_2)">
<path d="M103.87 0C105.225 0 106.333 1.14545 106.333 2.54546V25.4546C106.333 26.8546 105.225 28 103.87 28H64.463C63.1083 28 62 26.8546 62 25.4546V2.54546C62 1.14545 63.1083 0 64.463 0H103.87Z" fill="white"/>
<path opacity="0.25" d="M103.491 28H64.842C63.274 28 62 26.7435 62 25.2V2.8C62 1.2565 63.274 0 64.842 0H103.491C105.059 0 106.333 1.2565 106.333 2.8V25.2C106.333 26.7435 105.059 28 103.491 28ZM64.842 1.12C63.9017 1.12 63.1363 1.87367 63.1363 2.8V25.2C63.1363 26.1263 63.9017 26.88 64.842 26.88H103.491C104.432 26.88 105.197 26.1263 105.197 25.2V2.8C105.197 1.87367 104.432 1.12 103.491 1.12H64.842Z" fill="#A7A8AB"/>
<path d="M81.5333 7.55504C81.6755 7.86492 81.8667 8.13605 82.1057 8.37088C82.3447 8.6057 82.6264 8.78848 82.9535 8.92162C83.2792 9.05477 83.6264 9.12013 83.9937 9.12013C84.361 9.12013 84.7057 9.05356 85.0277 8.92162C85.3497 8.78848 85.6314 8.6057 85.8755 8.37088C86.1182 8.13726 86.3094 7.86492 86.4478 7.55504C86.5862 7.24517 86.6541 6.91351 86.6541 6.56007C86.6541 6.20662 86.5849 5.87496 86.4478 5.56509C86.3094 5.25522 86.1195 4.98408 85.8755 4.74926C85.6314 4.51565 85.3497 4.33166 85.0277 4.19851C84.7057 4.06536 84.361 4 83.9937 4C83.6264 4 83.2792 4.06657 82.9535 4.19851C82.6277 4.33166 82.3447 4.51443 82.1057 4.74926C81.8667 4.98408 81.6755 5.25522 81.5333 5.56509C81.3912 5.87496 81.3195 6.20662 81.3195 6.56007C81.3195 6.91351 81.3899 7.24517 81.5333 7.55504ZM76.2063 22.4349C76.3447 22.7448 76.5346 23.0159 76.7786 23.2507C77.0214 23.4856 77.3044 23.6683 77.6264 23.8015C77.9484 23.9346 78.2931 24 78.6604 24H89.3409C89.7082 24 90.0553 23.9334 90.3811 23.8015C90.7069 23.6683 90.9899 23.4856 91.2289 23.2507C91.4679 23.0171 91.6566 22.7448 91.7937 22.4349C91.9321 22.125 92 21.7934 92 21.4399V15.7896H79.7208V14.2512H92V13.2296C92 12.8761 91.9308 12.5445 91.7937 12.2346C91.6553 11.9247 91.4679 11.6536 91.2289 11.4187C90.9899 11.1851 90.7069 11.0011 90.3811 10.868C90.0553 10.7349 89.7082 10.6695 89.3409 10.6695H78.6604C78.2931 10.6695 77.9484 10.7361 77.6264 10.868C77.3044 11.0011 77.0226 11.1839 76.7786 11.4187C76.5346 11.6536 76.3447 11.9247 76.2063 12.2346C76.0679 12.5445 76 12.8761 76 13.2296V18.8799H88.2528V20.4183H76V21.4399C76 21.7934 76.0692 22.125 76.2063 22.4349Z" fill="#FF0000"/>
</g>
<mask id="mask1_9_2" style="mask-type:luminance" maskUnits="userSpaceOnUse" x="114" y="0" width="45" height="28">
<path d="M158.333 0H114V28H158.333V0Z" fill="white"/>
</mask>
<g mask="url(#mask1_9_2)">
<path d="M155.87 0C157.225 0 158.333 1.14545 158.333 2.54546V25.4546C158.333 26.8546 157.225 28 155.87 28H116.463C115.108 28 114 26.8546 114 25.4546V2.54546C114 1.14545 115.108 0 116.463 0H155.87Z" fill="white"/>
<path opacity="0.25" d="M155.491 28H116.842C115.274 28 114 26.7435 114 25.2V2.8C114 1.2565 115.274 0 116.842 0H155.491C157.059 0 158.333 1.2565 158.333 2.8V25.2C158.333 26.7435 157.059 28 155.491 28ZM116.842 1.12C115.902 1.12 115.136 1.87367 115.136 2.8V25.2C115.136 26.1263 115.902 26.88 116.842 26.88H155.491C156.432 26.88 157.197 26.1263 157.197 25.2V2.8C157.197 1.87367 156.432 1.12 155.491 1.12H116.842Z" fill="#A7A8AB"/>
</g>
<g clip-path="url(#clip1_9_2)">
<path d="M120 3V25H152V3H120Z" fill="white"/>
<path d="M139.486 20.2899C139.17 21.9492 138.903 23.3583 138.799 23.9056H151.081V20.2899H139.486ZM120.662 20.3229V23.9385H132.857L132.044 20.3229H120.662Z" fill="#E05F0C"/>
<path d="M126.654 12.0326L125.767 8.29223H133.34L135.792 19.0291H135.897L137.442 12.1512C138.221 9.02834 138.515 8.29223 142.903 8.29223H146.058C146.058 8.29223 145.421 11.1709 144.628 14.2946C144.326 15.4862 141.691 15.3451 141.822 14.2322C141.836 14.1162 141.96 13.2788 142.059 12.6829C142.203 11.8256 141.203 11.7182 141.024 12.5669C140.896 13.1748 140.317 16.192 139.776 19.0291H151.081V3.61228H120.662V19.0291H131.701L130.129 12.0377L126.654 12.0326Z" fill="#0A438A"/>
</g>
<mask id="mask2_9_2" style="mask-type:luminance" maskUnits="userSpaceOnUse" x="167" y="0" width="45" height="28">
<path d="M211.333 0H167V28H211.333V0Z" fill="white"/>
</mask>
<g mask="url(#mask2_9_2)">
<path d="M208.87 0C210.225 0 211.333 1.14545 211.333 2.54546V25.4546C211.333 26.8546 210.225 28 208.87 28H169.463C168.108 28 167 26.8546 167 25.4546V2.54546C167 1.14545 168.108 0 169.463 0H208.87Z" fill="white"/>
<path opacity="0.25" d="M208.491 28H169.842C168.274 28 167 26.7435 167 25.2V2.8C167 1.2565 168.274 0 169.842 0H208.491C210.059 0 211.333 1.2565 211.333 2.8V25.2C211.333 26.7435 210.059 28 208.491 28ZM169.842 1.12C168.902 1.12 168.136 1.87367 168.136 2.8V25.2C168.136 26.1263 168.902 26.88 169.842 26.88H208.491C209.432 26.88 210.197 26.1263 210.197 25.2V2.8C210.197 1.87367 209.432 1.12 208.491 1.12H169.842Z" fill="#A7A8AB"/>
</g>
<g clip-path="url(#clip2_9_2)">
<path d="M194.823 23.9151H189H183.203L178.108 14.6648V14.6365L178.27 14.3536L183.931 4.08487H183.985H194.122L199.919 14.6365L199.892 14.6648L197.627 18.7666L194.85 23.8303L194.823 23.9151ZM189 5.69731C188.973 5.69731 188.946 5.69731 188.919 5.7256C188.353 6.40453 187.975 7.14003 187.841 7.36634L185.306 11.9774L182.772 16.5884C182.637 16.8147 182.233 17.5502 181.963 18.3989C181.963 18.4272 181.963 18.4554 181.963 18.4837C181.963 18.512 181.99 18.512 182.017 18.5403C182.853 18.71 183.662 18.71 183.931 18.71H189H194.069C194.338 18.71 195.12 18.71 195.983 18.5403C196.01 18.5403 196.037 18.512 196.037 18.4837C196.037 18.4554 196.064 18.4272 196.037 18.3989C195.74 17.5502 195.363 16.8147 195.228 16.5884L192.694 11.9774L190.159 7.36634C189.809 6.7157 189.458 6.17822 189.081 5.7256C189.054 5.69731 189.027 5.69731 189 5.69731Z" fill="white"/>
<mask id="mask3_9_2" style="mask-type:luminance" maskUnits="userSpaceOnUse" x="188" y="4" width="7" height="2">
<path d="M191.939 4C191.534 4 190.348 4 188.973 5.75389C189 5.78218 189 5.81047 189.027 5.81047C189.377 5.38614 189.836 4.93352 190.294 4.62235C190.725 4.31117 191.238 4.11315 191.669 4.08487C191.966 4.05658 192.99 4.05658 194.149 4.05658V4H191.939Z" fill="white"/>
</mask>
<g mask="url(#mask3_9_2)">
<path d="M194.176 4H188.973V5.81047H194.176V4Z" fill="url(#paint0_radial_9_2)"/>
</g>
<mask id="mask4_9_2" style="mask-type:luminance" maskUnits="userSpaceOnUse" x="178" y="4" width="17" height="19">
<path d="M183.85 4L179.537 11.8642L178.189 14.3253L178.027 14.6082L178 14.6365L182.125 22.1047C182.044 21.9349 181.963 21.7935 181.936 21.7086C181.775 21.3126 181.667 20.7468 181.694 20.181C181.775 18.7383 182.502 17.2956 182.853 16.645C183.716 15.0608 185.387 12.0339 185.387 12.0339C185.387 12.0339 187.059 9.00707 187.922 7.42291C188.299 6.74399 189.108 5.38614 190.267 4.59406C190.699 4.28289 191.211 4.11315 191.642 4.05658C191.966 4 192.99 4 194.15 4H183.85Z" fill="white"/>
</mask>
<g mask="url(#mask4_9_2)">
<path d="M194.15 4H178V22.133H194.15V4Z" fill="url(#paint1_radial_9_2)"/>
</g>
<mask id="mask5_9_2" style="mask-type:luminance" maskUnits="userSpaceOnUse" x="178" y="14" width="22" height="10">
<path d="M198.733 16.8996C198.49 17.2673 198.059 17.6351 197.601 17.8897C196.36 18.5403 194.824 18.5969 194.096 18.5969H189H183.931C183.203 18.5969 181.64 18.5403 180.426 17.8897C179.968 17.6351 179.537 17.2673 179.294 16.8996C179.132 16.6733 178.728 15.9378 178.243 15.0608L179.267 16.9279L183.15 24H194.851L199.946 14.7496C199.407 15.768 198.922 16.645 198.733 16.8996ZM178.027 14.7214C178.081 14.8345 178.162 14.9477 178.216 15.0608L178.027 14.7214Z" fill="white"/>
</mask>
<g mask="url(#mask5_9_2)">
<path d="M199.946 14.7214H178.027V24.0283H199.946V14.7214Z" fill="url(#paint2_radial_9_2)"/>
</g>
<mask id="mask6_9_2" style="mask-type:luminance" maskUnits="userSpaceOnUse" x="189" y="4" width="11" height="20">
<path d="M191.642 4.02829C191.211 4.08487 190.699 4.28289 190.267 4.56577C189.782 4.90523 189.35 5.32956 189 5.78218C189.485 6.40453 189.863 7.02687 190.078 7.42291C190.941 9.00707 192.613 12.0339 192.613 12.0339C192.613 12.0339 194.284 15.0608 195.147 16.645C195.525 17.3239 196.252 18.7383 196.306 20.181C196.333 20.7185 196.225 21.2843 196.064 21.7086C195.956 21.9915 195.471 22.8685 194.931 23.8586L200 14.6365L194.15 4C192.99 4 191.966 4 191.642 4.02829Z" fill="white"/>
</mask>
<g mask="url(#mask6_9_2)">
<path d="M200 4H189V23.8586H200V4Z" fill="url(#paint3_radial_9_2)"/>
</g>
</g>
<mask id="mask7_9_2" style="mask-type:luminance" maskUnits="userSpaceOnUse" x="219" y="0" width="45" height="28">
<path d="M263.333 0H219V28H263.333V0Z" fill="white"/>
</mask>
<g mask="url(#mask7_9_2)">
<path d="M260.87 0C262.225 0 263.333 1.14545 263.333 2.54546V25.4546C263.333 26.8546 262.225 28 260.87 28H221.463C220.108 28 219 26.8546 219 25.4546V2.54546C219 1.14545 220.108 0 221.463 0H260.87Z" fill="white"/>
<mask id="mask8_9_2" style="mask-type:luminance" maskUnits="userSpaceOnUse" x="231" y="4" width="20" height="20">
<path d="M250.5 4.6665H231.833V23.3332H250.5V4.6665Z" fill="white"/>
</mask>
<g mask="url(#mask8_9_2)">
<path fill-rule="evenodd" clip-rule="evenodd" d="M231.958 4.79102H250.376V23.2088H231.958V4.79102ZM234.571 7.40435V20.7199H247.887V7.40435H234.571ZM243.034 9.27102H246.394L239.425 18.8532H236.065L243.034 9.27102Z" fill="#0018A8"/>
</g>
<path opacity="0.25" d="M260.491 28H221.842C220.274 28 219 26.7435 219 25.2V2.8C219 1.2565 220.274 0 221.842 0H260.491C262.059 0 263.333 1.2565 263.333 2.8V25.2C263.333 26.7435 262.059 28 260.491 28ZM221.842 1.12C220.902 1.12 220.136 1.87367 220.136 2.8V25.2C220.136 26.1263 220.902 26.88 221.842 26.88H260.491C261.432 26.88 262.197 26.1263 262.197 25.2V2.8C262.197 1.87367 261.432 1.12 260.491 1.12H221.842Z" fill="#A7A8AB"/>
</g>
</g>
<defs>
<radialGradient id="paint0_radial_9_2" cx="0" cy="0" r="1" gradientUnits="userSpaceOnUse" gradientTransform="translate(196.084 21.864) scale(17.1273 17.9708)">
<stop stop-color="#FFDF4F"/>
<stop offset="0.1374" stop-color="#FFD137"/>
<stop offset="0.3217" stop-color="#FFC31A"/>
<stop offset="0.44" stop-color="#FEBE10"/>
<stop offset="0.6086" stop-color="#FCBA12"/>
<stop offset="0.7543" stop-color="#F5AF15"/>
<stop offset="0.8911" stop-color="#ED9F18"/>
<stop offset="0.9" stop-color="#ED9D19"/>
<stop offset="1" stop-color="#E0861A"/>
</radialGradient>
<radialGradient id="paint1_radial_9_2" cx="0" cy="0" r="1" gradientUnits="userSpaceOnUse" gradientTransform="translate(191.64 4.0183) scale(17.0136 17.8515)">
<stop stop-color="#FFDF4F"/>
<stop offset="0.1374" stop-color="#FFD137"/>
<stop offset="0.3217" stop-color="#FFC31A"/>
<stop offset="0.44" stop-color="#FEBE10"/>
<stop offset="0.6086" stop-color="#FCBA12"/>
<stop offset="0.7543" stop-color="#F5AF15"/>
<stop offset="0.8911" stop-color="#ED9F18"/>
<stop offset="0.9" stop-color="#ED9D19"/>
<stop offset="1" stop-color="#E0861A"/>
</radialGradient>
<radialGradient id="paint2_radial_9_2" cx="0" cy="0" r="1" gradientUnits="userSpaceOnUse" gradientTransform="translate(179.234 16.9578) scale(16.9961 17.8331)">
<stop stop-color="#FFDF4F"/>
<stop offset="0.1374" stop-color="#FFD137"/>
<stop offset="0.3217" stop-color="#FFC31A"/>
<stop offset="0.44" stop-color="#FEBE10"/>
<stop offset="0.6086" stop-color="#FCBA12"/>
<stop offset="0.7543" stop-color="#F5AF15"/>
<stop offset="0.8911" stop-color="#ED9F18"/>
<stop offset="0.9" stop-color="#ED9D19"/>
<stop offset="1" stop-color="#E0861A"/>
</radialGradient>
<radialGradient id="paint3_radial_9_2" cx="0" cy="0" r="1" gradientUnits="userSpaceOnUse" gradientTransform="translate(196.069 21.753) scale(17.039 17.8781)">
<stop stop-color="#FFDF4F"/>
<stop offset="0.1374" stop-color="#FFD137"/>
<stop offset="0.3217" stop-color="#FFC31A"/>
<stop offset="0.44" stop-color="#FEBE10"/>
<stop offset="0.6086" stop-color="#FCBA12"/>
<stop offset="0.7543" stop-color="#F5AF15"/>
<stop offset="0.8911" stop-color="#ED9F18"/>
<stop offset="0.9" stop-color="#ED9D19"/>
<stop offset="1" stop-color="#E0861A"/>
</radialGradient>
<clipPath id="clip0_9_2">
<rect width="264" height="28" fill="white"/>
</clipPath>
<clipPath id="clip1_9_2">
<rect width="32" height="22" fill="white" transform="translate(120 3)"/>
</clipPath>
<clipPath id="clip2_9_2">
<rect width="22" height="20" fill="white" transform="translate(178 4)"/>
</clipPath>
</defs>
</svg>
