<svg width="264" height="28" viewBox="0 0 264 28" fill="none" xmlns="http://www.w3.org/2000/svg">
<g clip-path="url(#clip0_9_194)">
<path d="M42 0H4C1.79086 0 0 1.79086 0 4V24C0 26.2091 1.79086 28 4 28H42C44.2091 28 46 26.2091 46 24V4C46 1.79086 44.2091 0 42 0Z" fill="#131735"/>
<path d="M17.3935 10.9429L12.4051 21.3864L7.4187 10.9429H9.62749L12.4051 16.9L15.1865 10.9429H17.3935Z" fill="#6AE69E"/>
<path d="M17.3937 6.4043H7.42163V8.23237H17.3937V6.4043Z" fill="#6AE69E"/>
<path d="M31.5488 6.40332H29.5242V21.1314H31.5488V6.40332Z" fill="#6AE69E"/>
<path d="M36.8664 10.9412V8.23096H34.8417V10.9412H33.1902V12.7692H34.8417V21.1306H36.8664V12.7692C36.8664 12.7692 37.4753 12.7692 37.6301 12.7692C38.0889 12.7692 38.5043 12.4995 38.7076 12.0753C38.7957 11.8916 39.2495 10.9412 39.2495 10.9412H36.8664Z" fill="#6AE69E"/>
<path d="M22.5764 10.8374C19.665 10.8374 17.3049 13.1634 17.3049 16.033C17.3049 18.9026 19.665 21.2287 22.5764 21.2287C25.4878 21.2287 27.8479 18.9026 27.8479 16.033C27.8479 13.1634 25.4878 10.8374 22.5764 10.8374ZM22.5764 19.2778C20.7684 19.2778 19.303 17.8252 19.303 16.033C19.303 14.2408 20.7687 12.7883 22.5764 12.7883C24.3844 12.7883 25.8498 14.2408 25.8498 16.033C25.8498 17.8252 24.3841 19.2778 22.5764 19.2778Z" fill="#6AE69E"/>
<mask id="mask0_9_194" style="mask-type:luminance" maskUnits="userSpaceOnUse" x="62" y="0" width="45" height="28">
<path d="M106.333 0H62V28H106.333V0Z" fill="white"/>
</mask>
<g mask="url(#mask0_9_194)">
<path d="M103.87 0C105.225 0 106.333 1.14545 106.333 2.54546V25.4546C106.333 26.8546 105.225 28 103.87 28H64.463C63.1083 28 62 26.8546 62 25.4546V2.54546C62 1.14545 63.1083 0 64.463 0H103.87Z" fill="white"/>
<path d="M75 5H94V15H75V5Z" fill="#E60028"/>
<path d="M75 14H94V24H75V14Z" fill="black"/>
<path d="M77.9503 13.7117H90.5706V14.8778H77.9503V13.7117Z" fill="white"/>
<path opacity="0.25" d="M103.491 28H64.842C63.274 28 62 26.7435 62 25.2V2.8C62 1.2565 63.274 0 64.842 0H103.491C105.059 0 106.333 1.2565 106.333 2.8V25.2C106.333 26.7435 105.059 28 103.491 28ZM64.842 1.12C63.9017 1.12 63.1363 1.87367 63.1363 2.8V25.2C63.1363 26.1263 63.9017 26.88 64.842 26.88H103.491C104.432 26.88 105.197 26.1263 105.197 25.2V2.8C105.197 1.87367 104.432 1.12 103.491 1.12H64.842Z" fill="#A7A8AB"/>
</g>
<mask id="mask1_9_194" style="mask-type:luminance" maskUnits="userSpaceOnUse" x="114" y="0" width="45" height="28">
<path d="M158.666 0H114.333V28H158.666V0Z" fill="white"/>
</mask>
<g mask="url(#mask1_9_194)">
<path d="M156.204 0C157.558 0 158.667 1.14545 158.667 2.54546V25.4546C158.667 26.8546 157.558 28 156.204 28H116.796C115.442 28 114.333 26.8546 114.333 25.4546V2.54546C114.333 1.14545 115.442 0 116.796 0H156.204Z" fill="white"/>
<path fill-rule="evenodd" clip-rule="evenodd" d="M136.4 8.16621C136.144 9.92378 135.94 11.4035 135.571 13.708C136.567 13.6869 138.829 14.0737 139.327 10.9243C139.739 8.30425 137.902 8.06158 136.4 8.16621Z" fill="url(#paint0_linear_9_194)"/>
<g clip-path="url(#clip1_9_194)">
<path d="M141.757 13.7748L139.919 9.15475L137.521 14.259C136.712 15.8649 134.063 16.3305 132.209 16.5888L132.545 15.9071L137.909 5.85341H142.092L145.088 11.9483L146.402 14.8403L149.108 20.6423L147.242 20.6378L145.787 20.6333C145.176 20.6404 144.577 20.5962 144.324 19.956L143.809 18.7166L142.946 16.6221L141.757 13.7748Z" fill="#006F4E"/>
<path d="M149.846 22.3032H122.23V24.6606H149.846V22.3032Z" fill="#006F4E"/>
<path d="M151.881 4.28397L150.772 4.86723L146.845 6.91826C146.845 6.91826 145.494 7.64414 144.628 7.82386L144.635 7.83793L144.628 7.83089C144.865 8.57085 145.111 9.04731 145.336 9.42528C145.403 9.53848 145.499 9.62354 145.61 9.68813C145.754 9.77831 145.926 9.82883 146.1 9.83331C146.272 9.83779 146.448 9.80325 146.611 9.72267L151.884 6.9093L151.881 4.28397Z" fill="#ED1C24"/>
<path d="M145.109 11.9662L141.778 13.7959C137.61 16.0542 132.178 18.2434 127.478 17.8513C125.493 17.6876 124.296 16.9432 124.41 15.6852C124.54 14.2545 125.791 12.7426 127.985 11.2333C129.663 10.0763 131.132 9.45215 131.905 9.18034C132.914 8.82795 133.78 8.66678 134.706 8.62521C134.931 8.62521 135.138 8.64376 135.296 8.68981C135.291 8.66231 135.287 8.63928 135.282 8.61178H135.284C134.864 5.934 134.159 5.57266 133.049 5.60719C129.936 5.70568 126.028 7.84177 123.954 10.3117C122.843 11.6388 122.276 13.2293 122.249 14.3671C122.209 16.1047 122.906 18.471 125.041 19.6785C127.413 21.0196 130.813 20.932 133.9 20.2387C137.217 19.4943 140.114 18.0726 142.962 16.6394L146.42 14.8582L151.893 11.7404L151.914 8.35341L145.109 11.9662Z" fill="#009598"/>
</g>
<path opacity="0.25" d="M155.825 28H117.175C115.607 28 114.333 26.7435 114.333 25.2V2.8C114.333 1.2565 115.607 0 117.175 0H155.825C157.393 0 158.667 1.2565 158.667 2.8V25.2C158.667 26.7435 157.393 28 155.825 28ZM117.175 1.12C116.235 1.12 115.47 1.87367 115.47 2.8V25.2C115.47 26.1263 116.235 26.88 117.175 26.88H155.825C156.765 26.88 157.53 26.1263 157.53 25.2V2.8C157.53 1.87367 156.765 1.12 155.825 1.12H117.175Z" fill="#A7A8AB"/>
</g>
<mask id="mask2_9_194" style="mask-type:luminance" maskUnits="userSpaceOnUse" x="166" y="0" width="46" height="28">
<path d="M211 0H166.667V28H211V0Z" fill="white"/>
</mask>
<g mask="url(#mask2_9_194)">
<path d="M208.537 0C209.892 0 211 1.14545 211 2.54546V25.4546C211 26.8546 209.892 28 208.537 28H169.13C167.775 28 166.667 26.8546 166.667 25.4546V2.54546C166.667 1.14545 167.775 0 169.13 0H208.537Z" fill="white"/>
<g clip-path="url(#clip2_9_194)">
<path d="M198 24H179.4V5.4H198V24Z" fill="url(#paint1_linear_9_194)"/>
<path d="M197.426 14.8229C197.426 18.715 197.59 22.689 197.59 22.689C197.59 23.1397 197.304 23.4264 196.935 23.4264H180.834C180.465 23.4264 180.219 23.0987 180.178 22.689C180.178 22.689 179.728 19.2886 179.728 14.1264C179.728 8.96432 180.178 6.50617 180.178 6.50617C180.219 6.09648 180.465 5.76873 180.834 5.76873H196.935C197.304 5.76873 197.59 6.09648 197.59 6.50617C197.59 6.46521 197.426 10.9308 197.426 14.8229Z" fill="url(#paint2_linear_9_194)"/>
<path d="M193.821 10.4392C192.674 11.0947 192.346 11.1357 191.076 11.9141L191.158 11.7502C191.814 11.0537 192.101 10.726 192.51 10.1114C191.363 10.1934 189.683 10.3163 188.495 10.5621L188.577 10.4392C189.642 9.9066 191.691 9.374 192.715 9.2511C192.469 8.88237 190.421 7.77621 189.929 7.57136L189.97 7.44845C191.527 7.61233 193.575 8.34978 194.436 8.88237C194.804 8.75947 195.214 8.75947 195.911 8.67753C195.911 8.67753 195.788 9.08722 195.05 9.61982C195.255 10.1114 194.804 12.9383 194.395 13.6758C194.395 12.5286 194.272 11.0537 193.821 10.4392Z" fill="url(#paint3_linear_9_194)"/>
<path d="M185.423 20.4766L185.464 20.3537C184.849 20.1079 184.234 19.944 183.743 19.4524C183.907 19.0017 184.071 18.674 184.357 18.2643L184.398 18.1414C183.866 18.2233 183.415 18.4282 182.964 18.5101C182.596 17.8956 182.473 17.0352 182.268 16.2158L182.227 16.3388C182.145 17.281 182.104 17.9366 182.227 18.674C181.858 18.7969 181.53 18.7969 181.203 18.9198L181.162 19.0427C181.653 19.3295 182.022 19.5753 182.596 19.8211C182.882 20.4357 183.21 20.8863 183.702 21.378L183.743 21.2551C183.661 20.8863 183.538 20.5995 183.579 20.1899C184.234 20.3537 184.767 20.4357 185.423 20.4766Z" fill="url(#paint4_linear_9_194)"/>
<path d="M187.143 11.1357C187.143 11.1357 186.897 11.5863 186.693 12.1599H186.652C188.086 12.3648 189.438 12.9383 189.765 13.1432L189.724 13.2661C188.208 12.9793 187.43 13.0203 186.897 13.0612C186.324 13.1432 186.242 13.1841 186.242 13.1841C185.914 13.8806 185.709 15.0278 185.627 15.4374L185.586 15.5603C185.3 14.9048 184.931 13.5938 184.931 13.5938C184.193 14.0035 182.473 15.6013 182.473 15.6013C183.415 13.7167 184.398 12.8564 184.398 12.8564C184.071 12.5286 183.21 12.3648 182.555 12.3238L182.596 12.2009C183.005 12.078 183.825 12.037 184.357 11.996C185.013 11.996 185.382 11.996 185.382 11.996C185.955 11.5863 186.816 11.1766 187.143 11.1357Z" fill="url(#paint5_linear_9_194)"/>
<path d="M188.946 19.2885C188.659 19.6982 188.372 20.026 188.045 20.3947C187.553 20.5176 186.979 20.4766 186.529 20.4766L186.488 20.5996C186.816 20.7634 187.143 20.8863 187.512 20.9683C187.225 21.2141 186.857 21.4189 186.57 21.6238L186.529 21.7467C187.102 21.6238 187.881 21.378 188.454 21.0092C188.741 21.0092 189.028 21.0092 189.233 20.9683L189.274 20.8454C189.233 20.7225 189.11 20.6405 189.069 20.4357C189.601 20.026 189.97 19.6573 190.421 19.2066L190.503 19.0837C190.052 19.3705 189.52 19.8211 189.028 20.067C188.987 19.7802 188.987 19.5753 188.946 19.2885Z" fill="url(#paint6_linear_9_194)"/>
<path d="M193.903 10.3163C192.756 10.9718 192.387 11.0128 191.158 11.7912C191.896 11.0128 192.141 10.685 192.592 9.98854C191.445 10.0295 189.765 10.1934 188.577 10.4392C189.601 9.86563 191.691 9.25109 192.756 9.12819C192.51 8.80043 190.462 7.69427 189.97 7.44845C191.568 7.57136 193.575 8.1859 194.518 8.75946C194.886 8.63656 195.296 8.63656 195.993 8.55462C195.829 8.8414 195.788 9.04625 195.132 9.49691C195.337 9.98854 194.886 12.8154 194.477 13.5529C194.436 12.4057 194.354 10.9308 193.903 10.3163Z" fill="white"/>
<path d="M185.504 20.3537C184.849 20.1079 184.357 19.8211 183.866 19.3295C184.03 18.8788 184.193 18.5511 184.48 18.1414C183.948 18.2233 183.538 18.2643 183.087 18.3872C182.719 17.7317 182.555 17.0762 182.35 16.2158C182.227 17.1581 182.227 17.8136 182.35 18.5511C181.94 18.674 181.612 18.7559 181.285 18.9198C181.776 19.2066 182.186 19.4524 182.719 19.6982C183.005 20.3128 183.333 20.7634 183.825 21.2551C183.702 20.8454 183.661 20.5176 183.743 20.0669C184.275 20.2308 184.808 20.3128 185.504 20.3537Z" fill="white"/>
<path d="M187.225 11.0128C187.02 11.2996 186.775 11.7912 186.734 11.996C188.413 12.2418 189.765 13.1432 189.765 13.1432C188.29 12.8564 187.512 12.8974 186.938 12.9383C186.406 12.9793 186.283 13.0612 186.283 13.0612C185.873 13.9216 185.627 15.4374 185.627 15.4374C185.382 14.7819 184.972 13.4709 184.972 13.4709C184.234 13.8806 182.514 15.4784 182.514 15.4784C183.456 13.5938 184.439 12.7335 184.439 12.7335C184.112 12.4057 183.251 12.2418 182.596 12.2009C182.923 12.078 183.784 11.9141 184.439 11.8731C185.095 11.8731 185.464 11.8731 185.464 11.8731C186.037 11.4634 186.897 11.0537 187.225 11.0128Z" fill="white"/>
<path d="M189.028 19.1656C188.741 19.5753 188.454 19.9031 188.126 20.2718C187.553 20.4357 187.102 20.4766 186.529 20.4766C186.856 20.6405 187.184 20.7634 187.553 20.8454C187.184 21.1731 186.897 21.378 186.529 21.6238C187.102 21.5009 187.881 21.2551 188.454 20.8863C188.741 20.8863 189.028 20.8863 189.233 20.8454C189.192 20.6815 189.151 20.5586 189.11 20.3128C189.642 19.9031 190.052 19.5344 190.462 19.0837C189.97 19.4114 189.56 19.6573 189.028 19.9031C189.028 19.6573 189.028 19.4524 189.028 19.1656Z" fill="white"/>
</g>
<path opacity="0.25" d="M208.158 28H169.509C167.941 28 166.667 26.7435 166.667 25.2V2.8C166.667 1.2565 167.941 0 169.509 0H208.158C209.726 0 211 1.2565 211 2.8V25.2C211 26.7435 209.726 28 208.158 28ZM169.509 1.12C168.568 1.12 167.803 1.87367 167.803 2.8V25.2C167.803 26.1263 168.568 26.88 169.509 26.88H208.158C209.098 26.88 209.864 26.1263 209.864 25.2V2.8C209.864 1.87367 209.098 1.12 208.158 1.12H169.509Z" fill="#A7A8AB"/>
</g>
<mask id="mask3_9_194" style="mask-type:luminance" maskUnits="userSpaceOnUse" x="219" y="0" width="45" height="28">
<path d="M263.666 0H219.333V28H263.666V0Z" fill="white"/>
</mask>
<g mask="url(#mask3_9_194)">
<path d="M261.204 0C262.558 0 263.667 1.14545 263.667 2.54546V25.4546C263.667 26.8546 262.558 28 261.204 28H221.796C220.442 28 219.333 26.8546 219.333 25.4546V2.54546C219.333 1.14545 220.442 0 221.796 0H261.204Z" fill="white"/>
<path fill-rule="evenodd" clip-rule="evenodd" d="M241.4 8.16621C241.144 9.92378 240.94 11.4035 240.571 13.708C241.567 13.6869 243.829 14.0737 244.327 10.9243C244.739 8.30425 242.902 8.06158 241.4 8.16621Z" fill="url(#paint7_linear_9_194)"/>
<path fill-rule="evenodd" clip-rule="evenodd" d="M250.031 20.8372C250.418 21.6786 250.028 22.7425 249.219 23.1706C248.755 23.4168 248.224 23.6454 247.695 23.7738C246.821 23.9773 245.928 24.0905 245.029 24.1114C243.593 24.1114 242.153 23.3096 241.532 22.3336C241.372 22.6704 240.793 23.3474 239.778 23.6656C239.137 23.8679 238.364 24.1114 236.751 24.1097C235.306 24.1088 234.481 23.4696 234.046 22.9332C233.351 22.0804 233.249 20.9972 233.385 20.2674L233.392 20.2323C233.938 17.5638 234.683 12.7122 235.027 10.2812L235.03 10.2574C235.124 9.58306 235.22 8.9087 235.277 8.22993C235.305 7.88791 235.324 7.54414 235.327 7.20124C235.331 6.8768 235.3 6.55325 235.303 6.22881C235.306 5.92284 235.357 5.61335 235.504 5.34255C235.743 4.90557 236.18 4.56092 236.643 4.41057C237.151 4.24528 237.681 4.17933 238.208 4.11955C238.748 4.05653 239.288 4.00377 239.83 3.96128C240.49 3.91398 241.152 3.88993 241.814 3.88919C242.946 3.88831 244.086 3.90677 245.202 4.13098C246.34 4.35957 247.488 4.79655 248.386 5.56236C249.001 6.08726 249.489 6.74931 249.856 7.4738C250.177 8.11212 250.307 8.78385 250.385 9.29731C250.523 10.2189 250.487 11.1572 250.278 12.066C250.113 12.7286 249.834 13.3593 249.454 13.9317C249.027 14.5788 248.479 15.1662 247.78 15.7253C248.205 16.9299 249.315 19.2827 250.031 20.8372ZM237.31 6.35102C237.337 6.79767 237.341 7.24784 237.321 7.69624C237.301 8.15432 237.261 8.61064 237.208 9.06608C237.157 9.51976 237.095 9.97168 237.032 10.4236L237.011 10.5713C236.812 11.9842 236.603 13.3954 236.384 14.8039C236.153 16.2845 235.894 17.7572 235.636 19.2317C235.516 19.9193 235.246 20.8002 235.615 21.4561C235.943 22.0417 236.785 22.1129 237.372 22.054C239.51 21.8412 239.85 21.3779 239.85 21.3779C239.424 20.9172 239.795 18.8176 240.224 15.9953H241.743L243.334 20.6859C243.334 20.6859 243.803 22.1393 245.106 22.069C246.775 21.9793 248.003 21.6074 248.18 21.4008C247.666 21.1212 246.196 17.5374 245.395 14.9059C245.783 14.6755 246.159 14.425 246.514 14.1445C246.998 13.7594 247.447 13.3154 247.791 12.794C248.038 12.4194 248.226 12.0071 248.334 11.5692C248.391 11.338 248.423 11.0962 248.443 10.8597C248.479 10.4429 248.465 10.0209 248.403 9.60768C248.343 9.21027 248.254 8.76802 248.072 8.40929C247.734 7.73844 247.255 7.15288 246.602 6.77833C245.5 6.14704 244.23 6.02659 242.992 5.96065C241.649 5.88785 240.303 5.93081 238.968 6.08901C238.818 6.1066 237.304 6.23672 237.31 6.35102Z" fill="url(#paint8_linear_9_194)"/>
<path opacity="0.25" d="M260.825 28H222.175C220.607 28 219.333 26.7435 219.333 25.2V2.8C219.333 1.2565 220.607 0 222.175 0H260.825C262.393 0 263.667 1.2565 263.667 2.8V25.2C263.667 26.7435 262.393 28 260.825 28ZM222.175 1.12C221.235 1.12 220.47 1.87367 220.47 2.8V25.2C220.47 26.1263 221.235 26.88 222.175 26.88H260.825C261.765 26.88 262.53 26.1263 262.53 25.2V2.8C262.53 1.87367 261.765 1.12 260.825 1.12H222.175Z" fill="#A7A8AB"/>
</g>
</g>
<defs>
<linearGradient id="paint0_linear_9_194" x1="127.904" y1="25.9923" x2="146.937" y2="7.54945" gradientUnits="userSpaceOnUse">
<stop offset="0.113" stop-color="#0D59EC"/>
<stop offset="0.742" stop-color="#008FE1"/>
<stop offset="1" stop-color="#20AFFF"/>
</linearGradient>
<linearGradient id="paint1_linear_9_194" x1="188.7" y1="4.95204" x2="188.7" y2="24.5669" gradientUnits="userSpaceOnUse">
<stop stop-color="#00774A"/>
<stop offset="0.6" stop-color="#8CCAAE"/>
<stop offset="1" stop-color="#00975F"/>
</linearGradient>
<linearGradient id="paint2_linear_9_194" x1="188.671" y1="0.793599" x2="188.671" y2="22.835" gradientUnits="userSpaceOnUse">
<stop stop-color="#00975F"/>
<stop offset="0.3" stop-color="#8CCAAE"/>
<stop offset="0.55" stop-color="#00975F"/>
<stop offset="0.8352" stop-color="#00774A"/>
<stop offset="0.8691" stop-color="#007C4E"/>
<stop offset="0.9244" stop-color="#00895A"/>
<stop offset="0.9938" stop-color="#009E6E"/>
<stop offset="1" stop-color="#00A070"/>
</linearGradient>
<linearGradient id="paint3_linear_9_194" x1="192.201" y1="21.618" x2="192.201" y2="7.35435" gradientUnits="userSpaceOnUse">
<stop stop-color="#00A97C"/>
<stop offset="1" stop-color="#00975F"/>
</linearGradient>
<linearGradient id="paint4_linear_9_194" x1="183.352" y1="21.6188" x2="183.352" y2="7.3509" gradientUnits="userSpaceOnUse">
<stop stop-color="#00A97C"/>
<stop offset="1" stop-color="#00975F"/>
</linearGradient>
<linearGradient id="paint5_linear_9_194" x1="186.109" y1="21.6156" x2="186.109" y2="7.35648" gradientUnits="userSpaceOnUse">
<stop stop-color="#00A97C"/>
<stop offset="1" stop-color="#00975F"/>
</linearGradient>
<linearGradient id="paint6_linear_9_194" x1="188.492" y1="21.6177" x2="188.492" y2="7.35652" gradientUnits="userSpaceOnUse">
<stop stop-color="#00A97C"/>
<stop offset="1" stop-color="#00975F"/>
</linearGradient>
<linearGradient id="paint7_linear_9_194" x1="232.904" y1="25.9923" x2="251.937" y2="7.54945" gradientUnits="userSpaceOnUse">
<stop offset="0.113" stop-color="#0D59EC"/>
<stop offset="0.742" stop-color="#008FE1"/>
<stop offset="1" stop-color="#20AFFF"/>
</linearGradient>
<linearGradient id="paint8_linear_9_194" x1="232.904" y1="25.9927" x2="251.937" y2="7.54986" gradientUnits="userSpaceOnUse">
<stop offset="0.113" stop-color="#0D59EC"/>
<stop offset="0.742" stop-color="#008FE1"/>
<stop offset="1" stop-color="#20AFFF"/>
</linearGradient>
<clipPath id="clip0_9_194">
<rect width="264" height="28" fill="white"/>
</clipPath>
<clipPath id="clip1_9_194">
<rect width="30" height="21" fill="white" transform="translate(122 4)"/>
</clipPath>
<clipPath id="clip2_9_194">
<rect width="18.6" height="18.6" fill="white" transform="matrix(1 0 0 -1 179.4 24)"/>
</clipPath>
</defs>
</svg>
