<svg width="264" height="28" viewBox="0 0 264 28" fill="none" xmlns="http://www.w3.org/2000/svg">
<g clip-path="url(#clip0_9_146)">
<path d="M42 0H4C1.79086 0 0 1.79086 0 4V24C0 26.2091 1.79086 28 4 28H42C44.2091 28 46 26.2091 46 24V4C46 1.79086 44.2091 0 42 0Z" fill="#131735"/>
<path d="M17.3935 10.9429L12.4051 21.3864L7.4187 10.9429H9.62749L12.4051 16.9L15.1865 10.9429H17.3935Z" fill="#6AE69E"/>
<path d="M17.3937 6.4043H7.42163V8.23237H17.3937V6.4043Z" fill="#6AE69E"/>
<path d="M31.5488 6.40332H29.5242V21.1314H31.5488V6.40332Z" fill="#6AE69E"/>
<path d="M36.8664 10.9412V8.23096H34.8417V10.9412H33.1902V12.7692H34.8417V21.1306H36.8664V12.7692C36.8664 12.7692 37.4753 12.7692 37.6301 12.7692C38.0889 12.7692 38.5043 12.4995 38.7076 12.0753C38.7957 11.8916 39.2495 10.9412 39.2495 10.9412H36.8664Z" fill="#6AE69E"/>
<path d="M22.5764 10.8374C19.665 10.8374 17.3049 13.1634 17.3049 16.033C17.3049 18.9026 19.665 21.2287 22.5764 21.2287C25.4878 21.2287 27.8479 18.9026 27.8479 16.033C27.8479 13.1634 25.4878 10.8374 22.5764 10.8374ZM22.5764 19.2778C20.7684 19.2778 19.303 17.8252 19.303 16.033C19.303 14.2408 20.7687 12.7883 22.5764 12.7883C24.3844 12.7883 25.8498 14.2408 25.8498 16.033C25.8498 17.8252 24.3841 19.2778 22.5764 19.2778Z" fill="#6AE69E"/>
<mask id="mask0_9_146" style="mask-type:luminance" maskUnits="userSpaceOnUse" x="62" y="0" width="45" height="28">
<path d="M106.333 0H62V28H106.333V0Z" fill="white"/>
</mask>
<g mask="url(#mask0_9_146)">
<path d="M103.87 0C105.225 0 106.333 1.14545 106.333 2.54546V25.4546C106.333 26.8546 105.225 28 103.87 28H64.463C63.1083 28 62 26.8546 62 25.4546V2.54546C62 1.14545 63.1083 0 64.463 0H103.87Z" fill="white"/>
<path opacity="0.25" d="M103.491 28H64.842C63.274 28 62 26.7435 62 25.2V2.8C62 1.2565 63.274 0 64.842 0H103.491C105.059 0 106.333 1.2565 106.333 2.8V25.2C106.333 26.7435 105.059 28 103.491 28ZM64.842 1.12C63.9017 1.12 63.1363 1.87367 63.1363 2.8V25.2C63.1363 26.1263 63.9017 26.88 64.842 26.88H103.491C104.432 26.88 105.197 26.1263 105.197 25.2V2.8C105.197 1.87367 104.432 1.12 103.491 1.12H64.842Z" fill="#A7A8AB"/>
</g>
<g clip-path="url(#clip1_9_146)">
<path d="M91.4913 10.3571L88.5673 15.8187C88.505 15.9355 88.3237 15.9355 88.2613 15.8187L85.3373 10.3571C85.309 10.3014 85.2523 10.2681 85.19 10.2681H83.7733C83.677 10.2681 83.6147 10.3682 83.66 10.4516L88.267 18.9166C88.3293 19.0334 88.4993 19.0334 88.5673 18.9166L93.1743 10.4516C93.2197 10.3682 93.1573 10.2681 93.061 10.2681H91.6443C91.5763 10.2681 91.5197 10.3014 91.4913 10.3571Z" fill="#004481"/>
<path d="M93.1517 17.6485L96.0757 12.1869C96.138 12.0701 96.3194 12.0701 96.3817 12.1869L99.3057 17.6485C99.334 17.7041 99.3907 17.7375 99.453 17.7375H100.87C100.966 17.7375 101.028 17.6374 100.983 17.5539L96.376 9.08899C96.3137 8.97219 96.1437 8.97219 96.0757 9.08899L91.4687 17.5539C91.4234 17.6374 91.4857 17.7375 91.582 17.7375H92.9987C93.061 17.7319 93.1234 17.6986 93.1517 17.6485Z" fill="#004481"/>
<path d="M73.1653 14.2948C73.7773 13.9944 74.157 13.3437 74.157 12.5484C74.157 11.1858 73.0747 10.2625 71.5503 10.2625H67.17C67.0737 10.2625 67 10.3348 67 10.4294V18.8331C67 18.9277 67.0737 19 67.17 19H71.3633C73.46 19 74.565 18.1157 74.565 16.3804C74.565 14.6897 73.1653 14.2948 73.1653 14.2948ZM68.6433 11.5306H71.2443C72.202 11.5306 72.6893 11.931 72.6893 12.6763C72.6893 13.4216 72.202 13.822 71.2443 13.822H68.6433C68.5527 13.822 68.4733 13.7497 68.4733 13.6552V11.6974C68.4733 11.6029 68.547 11.5306 68.6433 11.5306ZM71.2783 17.7319H68.6433C68.547 17.7319 68.4733 17.6596 68.4733 17.5651V15.2458C68.4733 15.1568 68.547 15.079 68.6433 15.079H71.2783C72.5363 15.079 73.0973 15.4294 73.0973 16.4027C73.0917 17.3871 72.5477 17.7319 71.2783 17.7319Z" fill="#004481"/>
<path d="M82.1583 14.2948C82.7703 13.9944 83.15 13.3437 83.15 12.5484C83.15 11.1858 82.0676 10.2625 80.5433 10.2625H76.1573C76.061 10.2625 75.9873 10.3348 75.9873 10.4294V18.8331C75.9873 18.9277 76.061 19 76.1573 19H80.3506C82.4473 19 83.5523 18.1157 83.5523 16.3804C83.558 14.6897 82.1583 14.2948 82.1583 14.2948ZM77.6363 11.5306H80.2373C81.195 11.5306 81.6823 11.931 81.6823 12.6763C81.6823 13.4216 81.195 13.822 80.2373 13.822H77.6363C77.54 13.822 77.4663 13.7497 77.4663 13.6552V11.6974C77.4663 11.6029 77.54 11.5306 77.6363 11.5306ZM80.2656 17.7319H77.6306C77.54 17.7319 77.4606 17.6596 77.4606 17.5651V15.2458C77.4606 15.1568 77.5343 15.079 77.6306 15.079H80.2656C81.5236 15.079 82.0846 15.4294 82.0846 16.4027C82.0846 17.3871 81.535 17.7319 80.2656 17.7319Z" fill="#004481"/>
</g>
<mask id="mask1_9_146" style="mask-type:luminance" maskUnits="userSpaceOnUse" x="114" y="0" width="46" height="28">
<path d="M159 0H114.667V28H159V0Z" fill="white"/>
</mask>
<g mask="url(#mask1_9_146)">
<path d="M156.537 0C157.892 0 159 1.14545 159 2.54546V25.4546C159 26.8546 157.892 28 156.537 28H117.13C115.775 28 114.667 26.8546 114.667 25.4546V2.54546C114.667 1.14545 115.775 0 117.13 0H156.537Z" fill="white"/>
<mask id="mask2_9_146" style="mask-type:luminance" maskUnits="userSpaceOnUse" x="127" y="4" width="20" height="19">
<path d="M146.167 4.6665H127.5V22.1665H146.167V4.6665Z" fill="white"/>
</mask>
<g mask="url(#mask2_9_146)">
<path fill-rule="evenodd" clip-rule="evenodd" d="M146.159 17.1809C146.159 19.9363 141.982 22.1653 136.827 22.1653C131.671 22.1653 127.5 19.9363 127.5 17.1809C127.5 15.1931 129.651 13.4904 132.781 12.6789C132.768 12.869 132.773 13.0587 132.794 13.248C132.81 13.4342 132.841 13.6201 132.887 13.8055C132.929 13.9871 132.988 14.1668 133.063 14.3446C133.135 14.5178 133.218 14.6871 133.314 14.8525L136.23 19.8867C136.285 19.9813 136.335 20.076 136.381 20.1706C136.432 20.2699 136.476 20.3692 136.513 20.4685C136.551 20.5677 136.584 20.6689 136.614 20.772C136.643 20.8752 136.667 20.9802 136.689 21.0872L136.814 20.8771C136.989 20.5735 137.127 20.2514 137.222 19.9167C137.31 19.5761 137.353 19.2298 137.353 18.8835C137.353 18.5303 137.31 18.184 137.222 17.8492C137.127 17.5087 136.989 17.1866 136.814 16.883L134.469 12.8774C134.292 12.5738 134.161 12.2518 134.073 11.917C133.986 11.5765 133.935 11.2302 133.941 10.8827C133.941 10.5364 133.986 10.1901 134.079 9.85532C134.167 9.52056 134.305 9.19272 134.48 8.89606L134.607 8.68481C134.627 8.79255 134.652 8.89798 134.682 9.0011C134.711 9.10422 134.747 9.20542 134.788 9.3047C134.825 9.4032 134.867 9.50209 134.913 9.60137C134.959 9.70064 135.009 9.79568 135.064 9.88649L136.431 12.2148L138.57 15.8672C138.624 15.958 138.674 16.053 138.72 16.1523C138.766 16.2477 138.808 16.347 138.846 16.4501C138.884 16.5486 138.917 16.6495 138.946 16.7526C138.979 16.8565 139.007 16.9619 139.028 17.0689L139.153 16.8588C139.329 16.5552 139.46 16.2331 139.555 15.8926C139.643 15.5578 139.693 15.2115 139.693 14.8641C139.693 14.512 139.643 14.1645 139.555 13.8309C139.46 13.4904 139.329 13.1683 139.153 12.8647L136.814 8.87066C136.638 8.56706 136.506 8.245 136.413 7.90447C136.325 7.57086 136.275 7.2234 136.275 6.87132C136.275 6.52386 136.325 6.17755 136.413 5.83702C136.506 5.50226 136.638 5.18019 136.814 4.8766L136.939 4.6665C136.96 4.77347 136.985 4.8789 137.015 4.9828C137.048 5.08592 137.084 5.18673 137.121 5.28524C137.159 5.38451 137.2 5.48379 137.246 5.58306C137.292 5.67772 137.343 5.77276 137.397 5.86819L140.32 10.8527C140.4 10.9927 140.471 11.137 140.533 11.2856C140.596 11.4341 140.651 11.5849 140.697 11.7381C140.743 11.8904 140.778 12.0451 140.803 12.2021C140.828 12.363 140.845 12.5219 140.853 12.6789C143.982 13.4904 146.146 15.1931 146.159 17.1809Z" fill="#EC0000"/>
</g>
<path opacity="0.25" d="M156.158 28H117.509C115.941 28 114.667 26.7435 114.667 25.2V2.8C114.667 1.2565 115.941 0 117.509 0H156.158C157.726 0 159 1.2565 159 2.8V25.2C159 26.7435 157.726 28 156.158 28ZM117.509 1.12C116.568 1.12 115.803 1.87367 115.803 2.8V25.2C115.803 26.1263 116.568 26.88 117.509 26.88H156.158C157.098 26.88 157.864 26.1263 157.864 25.2V2.8C157.864 1.87367 157.098 1.12 156.158 1.12H117.509Z" fill="#A7A8AB"/>
</g>
<mask id="mask3_9_146" style="mask-type:luminance" maskUnits="userSpaceOnUse" x="167" y="0" width="45" height="28">
<path d="M211.333 0H167V28H211.333V0Z" fill="white"/>
</mask>
<g mask="url(#mask3_9_146)">
<path d="M208.87 0C210.225 0 211.333 1.14545 211.333 2.54546V25.4546C211.333 26.8546 210.225 28 208.87 28H169.463C168.108 28 167 26.8546 167 25.4546V2.54546C167 1.14545 168.108 0 169.463 0H208.87Z" fill="white"/>
<path opacity="0.25" d="M208.491 28H169.842C168.274 28 167 26.7435 167 25.2V2.8C167 1.2565 168.274 0 169.842 0H208.491C210.059 0 211.333 1.2565 211.333 2.8V25.2C211.333 26.7435 210.059 28 208.491 28ZM169.842 1.12C168.902 1.12 168.136 1.87367 168.136 2.8V25.2C168.136 26.1263 168.902 26.88 169.842 26.88H208.491C209.432 26.88 210.197 26.1263 210.197 25.2V2.8C210.197 1.87367 209.432 1.12 208.491 1.12H169.842Z" fill="#A7A8AB"/>
</g>
<g clip-path="url(#clip2_9_146)">
<path d="M194.985 24H182.99C180.802 24 179 22.2239 179 20.0103V7.9897C179 5.8018 180.802 4 182.99 4H194.985C197.198 4 198.974 5.8018 198.974 7.9897V19.9846C199 22.2239 197.198 24 194.985 24Z" fill="#FF6200"/>
<path d="M198.46 21.3745C198.305 21.2973 198.305 21.2973 198.048 21.2973C197.97 21.2201 197.79 21.2201 197.713 21.2201C197.765 21.5032 197.867 21.7606 197.97 22.0438C198.022 22.1725 198.125 22.2754 198.254 22.3526C198.382 22.1725 198.511 21.9665 198.614 21.7606C198.511 21.5804 198.46 21.4517 198.46 21.3745ZM195.808 23.9228C195.757 23.7169 195.705 23.4852 195.68 23.3308V22.018C195.345 22.0952 195.268 22.1725 195.191 22.1725C194.933 22.3269 194.779 22.4041 194.779 22.5843C194.779 22.9189 194.856 23.2278 194.856 23.408C194.856 23.6654 194.856 23.8198 194.933 23.897C195.062 23.9485 195.139 23.9485 195.216 23.9743C195.422 23.9743 195.628 23.9485 195.808 23.9228ZM190.635 22.1982C190.635 22.1982 190.557 21.7864 190.48 21.6319C190.403 21.426 190.248 21.2716 190.068 21.1429C189.991 21.1429 189.837 20.9884 189.734 21.0656C189.734 21.0656 189.656 21.7091 189.579 21.7864C189.734 22.0438 189.914 22.1982 189.991 22.4299C190.068 22.6615 190.145 22.9961 190.326 23.2535C190.377 22.9189 190.635 22.7645 190.635 22.1982ZM197.301 22.6873C197.147 22.5328 197.456 21.9408 197.044 21.9408C196.889 21.8636 196.4 21.6834 196.4 21.6834C196.323 21.9408 196.323 22.4041 196.4 22.6615C196.4 22.8417 196.632 23.2793 196.812 23.5367C197.018 23.4337 197.224 23.305 197.43 23.1506C197.378 23.0219 197.327 22.8674 197.301 22.6873ZM196.735 15.583C197.07 15.583 196.323 15.2484 196.014 15.0167C195.963 15.0167 195.886 14.991 195.86 14.9395C195.705 14.7851 195.602 14.4504 195.293 14.3732C195.242 14.3732 195.216 14.3475 195.216 14.296C195.216 14.0643 195.139 13.0862 195.139 13.0862C195.293 13.4208 195.628 13.4208 195.783 13.4208C196.117 13.4208 196.349 13.3436 196.503 13.0862C196.503 13.009 196.58 12.8546 196.658 12.8546C196.812 12.7773 196.992 12.7001 197.07 12.5199C197.147 12.5199 197.224 12.3655 197.224 12.3655C196.503 12.2368 194.959 12.2368 194.959 12.2368C194.701 12.314 194.47 12.5714 194.47 12.6486C194.47 12.6486 194.624 13.5495 194.624 13.6268C194.624 14.193 194.701 14.193 194.701 14.7593C194.959 14.9138 195.036 14.9138 195.191 15.0939C195.268 15.2484 195.345 15.4286 195.448 15.583C195.783 15.7375 196.169 15.9176 196.426 16.1493C196.503 16.175 196.735 15.7632 196.735 15.583ZM196.246 17.0502C196.014 16.973 195.757 16.7928 195.268 16.8958C195.191 16.973 195.191 16.973 195.191 17.2304C195.602 17.2304 195.834 17.4878 196.169 17.565C196.169 17.5393 196.246 17.1532 196.246 17.0502ZM194.547 11.027C194.701 11.027 194.701 11.3616 194.701 11.5161C195.113 11.5161 195.525 11.5933 195.68 11.4389C196.58 11.027 195.191 10.6924 195.036 10.6924C194.624 10.6152 193.826 10.3578 194.135 10.6924C194.135 10.8726 194.367 10.8726 194.547 11.027ZM196.246 9.97169C196.812 10.1261 197.224 10.4607 197.636 10.9498C197.893 10.9498 198.125 10.7954 198.202 10.538C198.279 10.1261 198.357 9.48262 198.125 9.148C197.97 8.99356 197.893 8.8906 197.481 8.81338C197.173 8.73616 196.812 8.81338 196.58 9.07078C196.426 9.30244 196.169 9.63706 196.246 9.97169ZM192.822 10.6924C192.822 10.538 192.488 10.6152 192.333 10.6924C192.179 10.6924 191.922 10.8468 191.69 11.027C191.458 11.2844 191.278 11.3616 191.278 11.5933H191.69C192.102 11.5933 192.179 11.7477 192.333 11.5161C192.591 11.1815 192.822 11.027 192.822 10.6924ZM192.333 12.6486C192.333 12.4942 192.179 12.314 191.922 12.2368H190.866C190.454 12.2368 190.12 12.2368 189.734 12.314C189.888 12.6486 190.3 12.9575 190.454 13.1377C190.609 13.2921 190.789 13.4723 191.098 13.4723C191.432 13.3951 191.432 13.4723 191.587 13.3951C191.587 13.5495 191.664 13.8069 191.587 13.9614C191.587 14.0386 191.664 14.7079 191.355 14.7851C191.124 14.8623 190.789 15.0425 190.635 15.2741C190.48 15.5058 190.377 15.9176 190.635 16.0978C190.789 16.175 190.969 15.9434 191.201 15.8404C191.458 15.7632 191.432 15.583 191.535 15.3514C191.69 15.1969 192.025 15.094 192.102 14.9395V14.6821C192.179 13.9356 192.179 13.7812 192.256 13.2921C192.256 13.2149 192.333 12.7516 192.333 12.6486ZM191.69 17.0502C191.535 16.973 191.355 16.973 191.201 16.973C191.021 16.973 190.815 16.9987 190.635 17.0502C190.686 17.2046 190.738 17.3848 190.789 17.5393C191.021 17.462 191.124 17.3848 191.278 17.3076C191.278 17.3076 191.613 17.1532 191.69 17.0502ZM189.991 10.4607C190.145 10.3063 190.635 9.97169 190.635 9.97169C190.712 9.97169 190.712 9.89446 190.712 9.81724C190.557 9.25096 190.377 9.25096 190.068 9.07078C189.914 8.94208 189.708 8.8906 189.502 8.91634C189.167 8.99356 188.601 9.17374 188.447 9.6628C188.447 9.74002 188.369 10.0746 188.601 10.3835C188.756 10.7181 189.09 10.9498 189.245 11.13C189.476 11.1042 189.579 10.6924 189.991 10.4607ZM196.735 16.6641C197.353 16.6641 198.099 16.8185 199 17.1789V17.7194C198.099 17.3591 197.275 17.2819 196.838 17.1532V17.7967C197.173 17.8739 197.327 18.0541 197.662 18.1313C197.79 18.1828 198.485 18.5689 199.026 18.852V19.4183C198.048 18.8005 197.353 18.5689 196.529 18.2085C196.375 18.3629 196.297 18.6203 196.04 18.7748C195.963 18.852 195.396 18.3629 195.062 18.2085C194.83 18.0541 194.341 17.9768 194.006 17.8739C193.929 17.8739 193.929 17.7194 193.929 17.6422C193.852 17.3848 193.775 17.1532 193.852 17.0759C194.264 16.9215 194.418 16.5869 194.418 16.3552C194.418 16.1236 194.65 16.4324 194.907 16.3552C195.062 16.2008 195.139 16.0206 195.062 15.8662C195.062 15.7117 194.985 15.5315 194.83 15.5315C194.032 15.1969 193.106 15.1969 192.308 15.5315C192.05 15.6088 192.05 15.9434 192.153 16.175C192.23 16.5097 192.565 16.3295 192.797 16.175C192.874 16.175 192.719 16.4324 192.874 16.6641C193.028 16.9987 193.363 17.0759 193.363 17.1532C193.363 17.4106 193.363 17.4106 193.286 17.565C193.286 17.7194 193.286 17.8996 193.131 17.9768C192.642 18.0541 192.23 18.2085 191.741 18.3887C191.51 18.4659 191.252 18.7233 191.021 18.7233C190.866 18.7233 190.686 18.3887 190.609 18.3115C190.454 18.3115 190.454 18.2342 190.12 18.3115C189.167 18.6976 188.241 19.1609 187.34 19.7014C187.185 19.547 187.263 19.2896 187.185 19.1351C188.086 18.5689 189.039 18.0798 190.043 17.668C190.12 17.5907 190.043 17.3333 189.965 17.1789C189.965 17.1789 189.399 17.1017 188.344 17.4363C187.7 17.5907 186.954 18.0026 186.877 18.0026C186.748 17.7709 186.722 17.5907 186.722 17.3848C187.211 17.1274 187.752 16.9215 188.266 16.7413C188.833 16.5869 189.399 16.5869 189.991 16.4839C189.914 16.4839 189.914 16.3295 189.914 16.2265C189.682 15.7375 189.27 15.3256 188.858 14.9138C188.704 14.5792 188.524 14.193 188.524 14.0129C188.678 13.8584 188.858 14.0901 189.09 14.0901C188.987 13.8069 188.936 13.4981 188.936 13.1892C188.858 12.8546 188.858 12.8546 188.858 12.4685C188.858 11.9794 189.013 11.7477 188.936 11.6448C188.858 11.5676 188.524 11.4131 188.447 11.4131C188.292 11.3359 188.215 11.3359 188.112 11.1557C187.855 10.7439 187.623 10.435 187.623 10.0232C187.623 9.61132 187.777 9.2767 187.958 8.8906C188.035 8.55598 188.447 8.40154 188.704 8.2471C188.961 8.09266 189.193 8.16988 189.425 8.16988C189.991 8.16988 190.48 8.5045 190.892 8.73616C191.175 8.96782 191.381 9.2767 191.458 9.63706H192.179C192.591 9.71428 193.003 9.7915 193.492 10.0489C194.058 9.55984 195.036 9.48262 195.525 9.48262C195.525 8.58172 196.169 8.09266 196.658 8.09266C197.07 8.01544 197.301 7.93822 197.893 8.16988C198.305 8.40154 198.871 9.22522 198.871 9.30244C199.026 9.63706 198.949 10.0489 198.949 10.538C198.897 10.7439 198.871 10.9755 198.871 11.1815C198.794 11.5161 198.382 11.7477 198.151 11.825C198.151 12.3912 197.996 12.7259 197.919 13.2149C197.919 13.4723 197.842 13.704 197.765 13.9356C197.996 13.8584 198.099 13.704 198.331 13.704C198.176 14.7593 197.919 14.6049 197.687 15.0939C197.584 15.4543 197.43 15.7889 197.198 16.0721C197.07 16.2008 196.941 16.3037 196.786 16.4067C196.58 16.4839 196.735 16.5611 196.735 16.6641ZM192.411 22.9189C192.333 22.7645 192.179 22.6615 191.999 22.6873C191.844 22.6873 191.432 22.4299 191.432 22.61C191.021 22.61 191.355 23.0219 191.355 23.2535C191.355 23.4337 191.587 23.7426 191.819 24H192.565C192.539 23.897 192.514 23.7683 192.488 23.6654C192.411 23.408 192.514 23.1763 192.411 22.9189ZM191.046 19.2638C191.124 19.5727 191.227 19.8816 191.381 20.1647C191.458 20.1647 191.535 20.3192 191.613 20.3192C191.767 20.1647 191.947 19.9073 192.179 19.8301V20.1647C192.179 20.4221 192.179 20.5766 192.256 20.8082C192.256 21.0656 192.514 21.0656 192.822 21.0656C193.157 21.0656 193.234 20.4994 193.234 20.4221C193.234 20.4221 193.312 20.7568 193.801 20.9884C193.801 20.9884 194.367 20.9884 194.367 20.9112C194.444 20.4994 194.521 20.4221 194.444 20.0875C194.444 20.0875 194.933 20.4221 195.191 20.731C195.345 20.5766 195.525 20.242 195.525 20.1647C195.68 19.8301 195.68 19.444 195.68 19.1094C195.036 18.6976 194.212 18.6203 193.389 18.6203C192.668 18.6203 191.844 18.6976 191.046 19.2638ZM194.135 22.3526C193.801 22.4299 193.157 22.5328 193.157 22.7645C193.08 22.9961 193.157 23.2535 193.157 23.408C193.234 23.5624 193.234 23.7426 193.234 23.9743V24H193.852C194.006 23.7941 194.135 23.6396 194.212 23.408C194.29 23.1763 194.212 22.7645 194.135 22.3526ZM185.898 9.148C185.744 9.37966 185.744 9.63706 185.744 9.86872C185.744 10.2806 185.821 10.5894 185.898 11.1042C185.564 11.3359 185.409 11.5161 185.075 11.6705C185.152 12.1596 185.229 13.0605 185.229 13.0605C185.384 12.8288 185.384 12.8288 185.564 12.6486C185.898 12.417 186.053 12.2368 186.465 11.9279C186.542 11.7735 186.619 11.8507 186.877 11.6705C186.954 11.5933 187.031 11.5161 187.031 11.4389C187.031 11.2844 186.954 11.1042 186.877 10.9498C186.799 10.7954 186.645 10.3835 186.645 10.3063C186.645 9.6628 186.722 9.48262 186.799 8.91634C186.465 8.81338 186.053 8.81338 185.898 9.148ZM187.031 14.7078C186.207 14.9652 185.641 15.1197 185.487 15.2741C185.075 15.5315 184.92 15.686 184.508 15.9176C184.508 16.4067 184.508 16.4067 184.586 16.6641L184.663 17.6422C184.817 17.3848 185.306 16.8958 185.564 16.5869C185.924 16.175 186.362 15.8404 186.877 15.6088C186.954 15.2741 187.031 15.0167 187.031 14.7078ZM185.487 22.4299C185.487 22.4299 185.744 22.2754 185.744 22.0952C186.156 21.6062 186.645 21.1943 186.722 21.1171C186.568 20.7053 186.49 20.6281 186.233 20.3964C186.156 20.4736 185.744 20.731 185.667 20.8855C185.512 20.9627 185.332 21.0399 185.255 21.1171C185.255 21.2716 185.332 21.3745 185.409 21.529C185.409 21.7091 185.487 22.121 185.487 22.4299ZM188.601 20.731C188.524 20.5766 188.266 20.4736 188.112 20.3964C187.958 20.3964 187.777 20.731 187.777 21.0399C187.803 21.3745 187.855 21.7091 187.932 22.018C187.932 22.0952 188.086 22.1725 188.266 22.2497C188.524 22.4041 188.756 22.5071 188.987 22.6615C188.987 22.6615 188.756 21.9151 188.653 21.529C188.601 21.2973 188.756 20.9627 188.601 20.731ZM189.399 6.62548C189.476 6.77992 190.454 7.37194 190.866 7.6036C191.201 7.861 191.51 7.93822 191.844 8.09266C192.076 7.78378 192.23 7.42342 192.333 7.03732C192.591 7.19176 192.9 7.19176 193.157 7.29472C193.157 7.62934 193.157 7.93822 193.234 8.27284C193.234 8.42728 193.389 8.35006 193.723 8.19562C194.212 8.04118 194.701 7.93822 194.933 7.861C195.499 7.52638 195.834 6.88288 196.323 6.88288C196.735 6.88288 197.456 7.11454 197.636 7.29472C197.867 7.37194 198.048 7.44916 198.279 7.44916C198.511 7.44916 198.717 7.26898 198.897 7.11454C198.871 6.98584 198.846 6.85714 198.794 6.75418C198.151 6.34234 197.43 5.9305 196.735 5.64736C196.246 6.0592 195.911 6.39382 195.68 6.39382C195.422 6.39382 195.602 5.90476 195.602 5.57014C195.371 5.57014 195.191 5.57014 194.959 5.49292C194.804 6.0592 194.701 6.80566 194.315 6.9601C194.212 7.01158 194.109 7.03732 193.981 7.03732V6.36808C193.981 6.29086 194.315 5.72458 194.238 5.64736C194.238 5.64736 193.517 5.8018 193.337 5.90476C193.26 5.98198 192.771 6.23938 192.694 6.23938C192.591 6.21364 192.488 6.16216 192.359 6.16216C192.127 6.00772 191.947 6.00772 191.716 5.82754C191.381 6.80566 191.304 7.03732 191.304 6.88288C191.304 6.88288 190.171 6.13642 189.759 5.64736C188.704 5.8018 188.704 5.98198 187.803 6.29086C187.469 6.62548 186.979 7.01158 186.671 7.52638C186.516 7.861 186.336 8.01544 186.182 8.35006L187.005 8.68468C187.211 8.42728 187.417 8.14414 187.571 7.861C188.112 7.52638 189.09 6.9601 189.399 6.62548ZM184.766 17.9511V18.3629C184.766 18.5174 184.843 19.4183 184.843 19.6757C184.92 19.9331 184.92 20.1647 184.997 20.3964C185.075 20.5508 185.152 20.731 185.152 20.8855C185.255 20.834 185.332 20.731 185.409 20.6281C185.641 20.3707 185.744 20.139 185.898 19.8044C185.821 19.2381 185.641 18.749 185.641 18.5946C185.641 17.9511 185.718 17.7709 185.795 17.3591C185.487 17.5393 185.1 17.7967 184.766 17.9511ZM187.134 13.4723C187.134 12.9833 187.288 12.9833 187.211 12.8288C187.134 12.6744 186.49 12.8288 186.31 12.8288C185.898 12.906 185.178 13.1634 185.178 13.3179C185.1 13.5495 185.1 14.1416 185.1 14.2188C185.178 14.4762 185.178 14.7078 185.255 14.9395C185.487 14.6821 185.59 14.6049 185.744 14.5277C185.821 14.4505 186.722 13.8069 186.799 13.704C186.954 13.5495 187.031 13.6268 187.134 13.4723ZM186.465 23.8198C186.387 23.897 186.336 23.9485 186.233 24H185.924C185.795 23.5882 185.615 23.2021 185.409 22.8417C185.409 22.8417 186.619 22.3526 186.954 22.3526C187.031 22.5071 187.108 22.7645 187.288 22.9189C187.134 23.0991 186.645 23.5882 186.465 23.8198Z" fill="white"/>
</g>
<mask id="mask4_9_146" style="mask-type:luminance" maskUnits="userSpaceOnUse" x="219" y="0" width="45" height="28">
<path d="M263.666 0H219.333V28H263.666V0Z" fill="white"/>
</mask>
<g mask="url(#mask4_9_146)">
<path d="M261.204 0C262.558 0 263.667 1.14545 263.667 2.54546V25.4546C263.667 26.8546 262.558 28 261.204 28H221.796C220.442 28 219.333 26.8546 219.333 25.4546V2.54546C219.333 1.14545 220.442 0 221.796 0H261.204Z" fill="white"/>
<path fill-rule="evenodd" clip-rule="evenodd" d="M241.4 8.16621C241.144 9.92378 240.94 11.4035 240.571 13.708C241.567 13.6869 243.829 14.0737 244.327 10.9243C244.739 8.30425 242.902 8.06158 241.4 8.16621Z" fill="url(#paint0_linear_9_146)"/>
<path fill-rule="evenodd" clip-rule="evenodd" d="M250.031 20.8372C250.418 21.6786 250.028 22.7425 249.219 23.1706C248.755 23.4168 248.224 23.6454 247.695 23.7738C246.821 23.9773 245.928 24.0905 245.029 24.1114C243.593 24.1114 242.153 23.3096 241.532 22.3336C241.372 22.6704 240.793 23.3474 239.778 23.6656C239.137 23.8679 238.364 24.1114 236.751 24.1097C235.306 24.1088 234.481 23.4696 234.046 22.9332C233.351 22.0804 233.249 20.9972 233.385 20.2674L233.392 20.2323C233.938 17.5638 234.683 12.7122 235.027 10.2812L235.03 10.2574C235.124 9.58306 235.22 8.9087 235.277 8.22993C235.305 7.88791 235.324 7.54414 235.327 7.20124C235.331 6.8768 235.3 6.55325 235.303 6.22881C235.306 5.92284 235.357 5.61335 235.504 5.34255C235.743 4.90557 236.18 4.56092 236.643 4.41057C237.151 4.24528 237.681 4.17933 238.208 4.11955C238.748 4.05653 239.288 4.00377 239.83 3.96128C240.49 3.91398 241.152 3.88993 241.814 3.88919C242.946 3.88831 244.086 3.90677 245.202 4.13098C246.34 4.35957 247.488 4.79655 248.386 5.56236C249.001 6.08726 249.489 6.74931 249.856 7.4738C250.177 8.11212 250.307 8.78385 250.385 9.29731C250.523 10.2189 250.487 11.1572 250.278 12.066C250.113 12.7286 249.834 13.3593 249.454 13.9317C249.027 14.5788 248.479 15.1662 247.78 15.7253C248.205 16.9299 249.315 19.2827 250.031 20.8372ZM237.31 6.35102C237.337 6.79767 237.341 7.24784 237.321 7.69624C237.301 8.15432 237.261 8.61064 237.208 9.06608C237.157 9.51976 237.095 9.97168 237.032 10.4236L237.011 10.5713C236.812 11.9842 236.603 13.3954 236.384 14.8039C236.153 16.2845 235.894 17.7572 235.636 19.2317C235.516 19.9193 235.246 20.8002 235.615 21.4561C235.943 22.0417 236.785 22.1129 237.372 22.054C239.51 21.8412 239.85 21.3779 239.85 21.3779C239.424 20.9172 239.795 18.8176 240.224 15.9953H241.743L243.334 20.6859C243.334 20.6859 243.803 22.1393 245.106 22.069C246.775 21.9793 248.003 21.6074 248.18 21.4008C247.666 21.1212 246.196 17.5374 245.395 14.9059C245.783 14.6755 246.159 14.425 246.514 14.1445C246.998 13.7594 247.447 13.3154 247.791 12.794C248.038 12.4194 248.226 12.0071 248.334 11.5692C248.391 11.338 248.423 11.0962 248.443 10.8597C248.479 10.4429 248.465 10.0209 248.403 9.60768C248.343 9.21027 248.254 8.76802 248.072 8.40929C247.734 7.73844 247.255 7.15288 246.602 6.77833C245.5 6.14704 244.23 6.02659 242.992 5.96065C241.649 5.88785 240.303 5.93081 238.968 6.08901C238.818 6.1066 237.304 6.23672 237.31 6.35102Z" fill="url(#paint1_linear_9_146)"/>
<path opacity="0.25" d="M260.825 28H222.175C220.607 28 219.333 26.7435 219.333 25.2V2.8C219.333 1.2565 220.607 0 222.175 0H260.825C262.393 0 263.667 1.2565 263.667 2.8V25.2C263.667 26.7435 262.393 28 260.825 28ZM222.175 1.12C221.235 1.12 220.47 1.87367 220.47 2.8V25.2C220.47 26.1263 221.235 26.88 222.175 26.88H260.825C261.765 26.88 262.53 26.1263 262.53 25.2V2.8C262.53 1.87367 261.765 1.12 260.825 1.12H222.175Z" fill="#A7A8AB"/>
</g>
</g>
<defs>
<linearGradient id="paint0_linear_9_146" x1="232.904" y1="25.9923" x2="251.937" y2="7.54945" gradientUnits="userSpaceOnUse">
<stop offset="0.113" stop-color="#0D59EC"/>
<stop offset="0.742" stop-color="#008FE1"/>
<stop offset="1" stop-color="#20AFFF"/>
</linearGradient>
<linearGradient id="paint1_linear_9_146" x1="232.904" y1="25.9927" x2="251.937" y2="7.54986" gradientUnits="userSpaceOnUse">
<stop offset="0.113" stop-color="#0D59EC"/>
<stop offset="0.742" stop-color="#008FE1"/>
<stop offset="1" stop-color="#20AFFF"/>
</linearGradient>
<clipPath id="clip0_9_146">
<rect width="264" height="28" fill="white"/>
</clipPath>
<clipPath id="clip1_9_146">
<rect width="34" height="10" fill="white" transform="translate(67 9)"/>
</clipPath>
<clipPath id="clip2_9_146">
<rect width="20" height="20" fill="white" transform="translate(179 4)"/>
</clipPath>
</defs>
</svg>
