<svg width="264" height="28" viewBox="0 0 264 28" fill="none" xmlns="http://www.w3.org/2000/svg">
<g clip-path="url(#clip0_9_50)">
<path d="M42 0H4C1.79086 0 0 1.79086 0 4V24C0 26.2091 1.79086 28 4 28H42C44.2091 28 46 26.2091 46 24V4C46 1.79086 44.2091 0 42 0Z" fill="#131735"/>
<path d="M17.3935 10.9429L12.4051 21.3864L7.4187 10.9429H9.62749L12.4051 16.9L15.1865 10.9429H17.3935Z" fill="#6AE69E"/>
<path d="M17.3937 6.4043H7.42163V8.23237H17.3937V6.4043Z" fill="#6AE69E"/>
<path d="M31.5488 6.40332H29.5242V21.1314H31.5488V6.40332Z" fill="#6AE69E"/>
<path d="M36.8664 10.9412V8.23096H34.8417V10.9412H33.1902V12.7692H34.8417V21.1306H36.8664V12.7692C36.8664 12.7692 37.4753 12.7692 37.6301 12.7692C38.0889 12.7692 38.5043 12.4995 38.7076 12.0753C38.7957 11.8916 39.2495 10.9412 39.2495 10.9412H36.8664Z" fill="#6AE69E"/>
<path d="M22.5764 10.8374C19.665 10.8374 17.3049 13.1634 17.3049 16.033C17.3049 18.9026 19.665 21.2287 22.5764 21.2287C25.4878 21.2287 27.8479 18.9026 27.8479 16.033C27.8479 13.1634 25.4878 10.8374 22.5764 10.8374ZM22.5764 19.2778C20.7684 19.2778 19.303 17.8252 19.303 16.033C19.303 14.2408 20.7687 12.7883 22.5764 12.7883C24.3844 12.7883 25.8498 14.2408 25.8498 16.033C25.8498 17.8252 24.3841 19.2778 22.5764 19.2778Z" fill="#6AE69E"/>
<mask id="mask0_9_50" style="mask-type:luminance" maskUnits="userSpaceOnUse" x="62" y="0" width="45" height="28">
<path d="M106.333 0H62V28H106.333V0Z" fill="white"/>
</mask>
<g mask="url(#mask0_9_50)">
<path d="M103.87 0C105.225 0 106.333 1.14545 106.333 2.54546V25.4546C106.333 26.8546 105.225 28 103.87 28H64.463C63.1083 28 62 26.8546 62 25.4546V2.54546C62 1.14545 63.1083 0 64.463 0H103.87Z" fill="white"/>
<path opacity="0.25" d="M103.491 28H64.842C63.274 28 62 26.7435 62 25.2V2.8C62 1.2565 63.274 0 64.842 0H103.491C105.059 0 106.333 1.2565 106.333 2.8V25.2C106.333 26.7435 105.059 28 103.491 28ZM64.842 1.12C63.9017 1.12 63.1363 1.87367 63.1363 2.8V25.2C63.1363 26.1263 63.9017 26.88 64.842 26.88H103.491C104.432 26.88 105.197 26.1263 105.197 25.2V2.8C105.197 1.87367 104.432 1.12 103.491 1.12H64.842Z" fill="#A7A8AB"/>
</g>
<g clip-path="url(#clip1_9_50)">
<path d="M89.9846 24H77.9897C75.8018 24 74 22.2239 74 20.0103V7.9897C74 5.8018 75.8018 4 77.9897 4H89.9846C92.1982 4 93.9743 5.8018 93.9743 7.9897V19.9846C94 22.2239 92.1982 24 89.9846 24Z" fill="#FF6200"/>
<path d="M93.4595 21.3745C93.3051 21.2973 93.3051 21.2973 93.0477 21.2973C92.9705 21.2201 92.7903 21.2201 92.7131 21.2201C92.7645 21.5032 92.8675 21.7606 92.9705 22.0438C93.0219 22.1725 93.1249 22.2754 93.2536 22.3526C93.3823 22.1725 93.511 21.9665 93.614 21.7606C93.511 21.5804 93.4595 21.4517 93.4595 21.3745ZM90.8083 23.9228C90.7568 23.7169 90.7053 23.4852 90.6796 23.3308V22.018C90.345 22.0952 90.2678 22.1725 90.1905 22.1725C89.9331 22.3269 89.7787 22.4041 89.7787 22.5843C89.7787 22.9189 89.8559 23.2278 89.8559 23.408C89.8559 23.6654 89.8559 23.8198 89.9331 23.897C90.0618 23.9485 90.1391 23.9485 90.2163 23.9743C90.4222 23.9743 90.6281 23.9485 90.8083 23.9228ZM85.6345 22.1982C85.6345 22.1982 85.5573 21.7864 85.4801 21.6319C85.4029 21.426 85.2484 21.2716 85.0683 21.1429C84.991 21.1429 84.8366 20.9884 84.7336 21.0656C84.7336 21.0656 84.6564 21.7091 84.5792 21.7864C84.7336 22.0438 84.9138 22.1982 84.991 22.4299C85.0683 22.6615 85.1455 22.9961 85.3257 23.2535C85.3771 22.9189 85.6345 22.7645 85.6345 22.1982ZM92.3012 22.6873C92.1468 22.5328 92.4557 21.9408 92.0438 21.9408C91.8894 21.8636 91.4003 21.6834 91.4003 21.6834C91.3231 21.9408 91.3231 22.4041 91.4003 22.6615C91.4003 22.8417 91.632 23.2793 91.8122 23.5367C92.0181 23.4337 92.224 23.305 92.4299 23.1506C92.3784 23.0219 92.327 22.8674 92.3012 22.6873ZM91.7349 15.583C92.0696 15.583 91.3231 15.2484 91.0142 15.0167C90.9627 15.0167 90.8855 14.991 90.8598 14.9395C90.7053 14.7851 90.6024 14.4504 90.2935 14.3732C90.242 14.3732 90.2163 14.3475 90.2163 14.296C90.2163 14.0643 90.1391 13.0862 90.1391 13.0862C90.2935 13.4208 90.6281 13.4208 90.7826 13.4208C91.1172 13.4208 91.3488 13.3436 91.5033 13.0862C91.5033 13.009 91.5805 12.8546 91.6577 12.8546C91.8122 12.7773 91.9923 12.7001 92.0696 12.5199C92.1468 12.5199 92.224 12.3655 92.224 12.3655C91.5033 12.2368 89.9589 12.2368 89.9589 12.2368C89.7015 12.314 89.4698 12.5714 89.4698 12.6486C89.4698 12.6486 89.6243 13.5495 89.6243 13.6268C89.6243 14.193 89.7015 14.193 89.7015 14.7593C89.9589 14.9138 90.0361 14.9138 90.1905 15.0939C90.2678 15.2484 90.345 15.4286 90.4479 15.583C90.7826 15.7375 91.1687 15.9176 91.4261 16.1493C91.5033 16.175 91.7349 15.7632 91.7349 15.583ZM91.2459 17.0502C91.0142 16.973 90.7568 16.7928 90.2678 16.8958C90.1905 16.973 90.1905 16.973 90.1905 17.2304C90.6024 17.2304 90.834 17.4878 91.1687 17.565C91.1687 17.5393 91.2459 17.1532 91.2459 17.0502ZM89.547 11.027C89.7015 11.027 89.7015 11.3616 89.7015 11.5161C90.1133 11.5161 90.5252 11.5933 90.6796 11.4389C91.5805 11.027 90.1905 10.6924 90.0361 10.6924C89.6243 10.6152 88.8263 10.3578 89.1352 10.6924C89.1352 10.8726 89.3669 10.8726 89.547 11.027ZM91.2459 9.97169C91.8122 10.1261 92.224 10.4607 92.6358 10.9498C92.8932 10.9498 93.1249 10.7954 93.2021 10.538C93.2793 10.1261 93.3566 9.48262 93.1249 9.148C92.9705 8.99356 92.8932 8.8906 92.4814 8.81338C92.1725 8.73616 91.8122 8.81338 91.5805 9.07078C91.4261 9.30244 91.1687 9.63706 91.2459 9.97169ZM87.8225 10.6924C87.8225 10.538 87.4878 10.6152 87.3334 10.6924C87.179 10.6924 86.9216 10.8468 86.6899 11.027C86.4582 11.2844 86.2781 11.3616 86.2781 11.5933H86.6899C87.1017 11.5933 87.179 11.7477 87.3334 11.5161C87.5908 11.1815 87.8225 11.027 87.8225 10.6924ZM87.3334 12.6486C87.3334 12.4942 87.179 12.314 86.9216 12.2368H85.8662C85.4544 12.2368 85.1197 12.2368 84.7336 12.314C84.8881 12.6486 85.2999 12.9575 85.4544 13.1377C85.6088 13.2921 85.789 13.4723 86.0979 13.4723C86.4325 13.3951 86.4325 13.4723 86.5869 13.3951C86.5869 13.5495 86.6642 13.8069 86.5869 13.9614C86.5869 14.0386 86.6642 14.7079 86.3553 14.7851C86.1236 14.8623 85.789 15.0425 85.6345 15.2741C85.4801 15.5058 85.3771 15.9176 85.6345 16.0978C85.789 16.175 85.9692 15.9434 86.2008 15.8404C86.4582 15.7632 86.4325 15.583 86.5355 15.3514C86.6899 15.1969 87.0245 15.094 87.1017 14.9395V14.6821C87.179 13.9356 87.179 13.7812 87.2562 13.2921C87.2562 13.2149 87.3334 12.7516 87.3334 12.6486ZM86.6899 17.0502C86.5355 16.973 86.3553 16.973 86.2008 16.973C86.0207 16.973 85.8147 16.9987 85.6345 17.0502C85.686 17.2046 85.7375 17.3848 85.789 17.5393C86.0206 17.462 86.1236 17.3848 86.2781 17.3076C86.2781 17.3076 86.6127 17.1532 86.6899 17.0502ZM84.991 10.4607C85.1455 10.3063 85.6345 9.97169 85.6345 9.97169C85.7118 9.97169 85.7118 9.89446 85.7118 9.81724C85.5573 9.25096 85.3771 9.25096 85.0683 9.07078C84.9138 8.94208 84.7079 8.8906 84.502 8.91634C84.1674 8.99356 83.6011 9.17374 83.4466 9.6628C83.4466 9.74002 83.3694 10.0746 83.6011 10.3835C83.7555 10.7181 84.0901 10.9498 84.2446 11.13C84.4762 11.1042 84.5792 10.6924 84.991 10.4607ZM91.7349 16.6641C92.3527 16.6641 93.0992 16.8185 94.0001 17.1789V17.7194C93.0992 17.3591 92.2755 17.2819 91.8379 17.1532V17.7967C92.1725 17.8739 92.327 18.0541 92.6616 18.1313C92.7903 18.1828 93.4853 18.5689 94.0258 18.852V19.4183C93.0477 18.8005 92.3527 18.5689 91.529 18.2085C91.3746 18.3629 91.2974 18.6203 91.04 18.7748C90.9627 18.852 90.3965 18.3629 90.0618 18.2085C89.8302 18.0541 89.3411 17.9768 89.0065 17.8739C88.9293 17.8739 88.9293 17.7194 88.9293 17.6422C88.8521 17.3848 88.7748 17.1532 88.8521 17.0759C89.2639 16.9215 89.4183 16.5869 89.4183 16.3552C89.4183 16.1236 89.65 16.4324 89.9074 16.3552C90.0618 16.2008 90.1391 16.0206 90.0618 15.8662C90.0618 15.7117 89.9846 15.5315 89.8302 15.5315C89.0322 15.1969 88.1056 15.1969 87.3077 15.5315C87.0503 15.6088 87.0503 15.9434 87.1532 16.175C87.2304 16.5097 87.5651 16.3295 87.7967 16.175C87.8739 16.175 87.7195 16.4324 87.8739 16.6641C88.0284 16.9987 88.363 17.0759 88.363 17.1532C88.363 17.4106 88.363 17.4106 88.2858 17.565C88.2858 17.7194 88.2858 17.8996 88.1313 17.9768C87.6423 18.0541 87.2304 18.2085 86.7414 18.3887C86.5097 18.4659 86.2523 18.7233 86.0207 18.7233C85.8662 18.7233 85.686 18.3887 85.6088 18.3115C85.4544 18.3115 85.4544 18.2342 85.1197 18.3115C84.1674 18.6976 83.2407 19.1609 82.3398 19.7014C82.1854 19.547 82.2626 19.2896 82.1854 19.1351C83.0863 18.5689 84.0387 18.0798 85.0425 17.668C85.1197 17.5907 85.0425 17.3333 84.9653 17.1789C84.9653 17.1789 84.399 17.1017 83.3437 17.4363C82.7002 17.5907 81.9537 18.0026 81.8765 18.0026C81.7478 17.7709 81.7221 17.5907 81.7221 17.3848C82.2111 17.1274 82.7517 16.9215 83.2665 16.7413C83.8327 16.5869 84.399 16.5869 84.991 16.4839C84.9138 16.4839 84.9138 16.3295 84.9138 16.2265C84.6822 15.7375 84.2703 15.3256 83.8585 14.9138C83.704 14.5792 83.5239 14.193 83.5239 14.0129C83.6783 13.8584 83.8585 14.0901 84.0901 14.0901C83.9872 13.8069 83.9357 13.4981 83.9357 13.1892C83.8585 12.8546 83.8585 12.8546 83.8585 12.4685C83.8585 11.9794 84.0129 11.7477 83.9357 11.6448C83.8585 11.5676 83.5239 11.4131 83.4466 11.4131C83.2922 11.3359 83.215 11.3359 83.112 11.1557C82.8546 10.7439 82.623 10.435 82.623 10.0232C82.623 9.61132 82.7774 9.2767 82.9576 8.8906C83.0348 8.55598 83.4466 8.40154 83.704 8.2471C83.9614 8.09266 84.1931 8.16988 84.4248 8.16988C84.991 8.16988 85.4801 8.5045 85.8919 8.73616C86.1751 8.96782 86.381 9.2767 86.4582 9.63706H87.179C87.5908 9.71428 88.0026 9.7915 88.4917 10.0489C89.058 9.55984 90.0361 9.48262 90.5252 9.48262C90.5252 8.58172 91.1687 8.09266 91.6577 8.09266C92.0696 8.01544 92.3012 7.93822 92.8932 8.16988C93.3051 8.40154 93.8714 9.22522 93.8714 9.30244C94.0258 9.63706 93.9486 10.0489 93.9486 10.538C93.8971 10.7439 93.8714 10.9755 93.8714 11.1815C93.7941 11.5161 93.3823 11.7477 93.1506 11.825C93.1506 12.3912 92.9962 12.7259 92.919 13.2149C92.919 13.4723 92.8418 13.704 92.7645 13.9356C92.9962 13.8584 93.0992 13.704 93.3308 13.704C93.1764 14.7593 92.919 14.6049 92.6873 15.0939C92.5844 15.4543 92.4299 15.7889 92.1983 16.0721C92.0696 16.2008 91.9409 16.3037 91.7864 16.4067C91.5805 16.4839 91.7349 16.5611 91.7349 16.6641ZM87.4106 22.9189C87.3334 22.7645 87.179 22.6615 86.9988 22.6873C86.8443 22.6873 86.4325 22.4299 86.4325 22.61C86.0206 22.61 86.3553 23.0219 86.3553 23.2535C86.3553 23.4337 86.5869 23.7426 86.8186 24H87.5651C87.5393 23.897 87.5136 23.7683 87.4878 23.6654C87.4106 23.408 87.5136 23.1763 87.4106 22.9189ZM86.0464 19.2638C86.1236 19.5727 86.2266 19.8816 86.381 20.1647C86.4582 20.1647 86.5355 20.3192 86.6127 20.3192C86.7671 20.1647 86.9473 19.9073 87.179 19.8301V20.1647C87.179 20.4221 87.179 20.5766 87.2562 20.8082C87.2562 21.0656 87.5136 21.0656 87.8225 21.0656C88.1571 21.0656 88.2343 20.4994 88.2343 20.4221C88.2343 20.4221 88.3115 20.7568 88.8006 20.9884C88.8006 20.9884 89.3669 20.9884 89.3669 20.9112C89.4441 20.4994 89.5213 20.4221 89.4441 20.0875C89.4441 20.0875 89.9331 20.4221 90.1905 20.731C90.345 20.5766 90.5252 20.242 90.5252 20.1647C90.6796 19.8301 90.6796 19.444 90.6796 19.1094C90.0361 18.6976 89.2124 18.6203 88.3887 18.6203C87.668 18.6203 86.8443 18.6976 86.0464 19.2638ZM89.1352 22.3526C88.8006 22.4299 88.1571 22.5328 88.1571 22.7645C88.0799 22.9961 88.1571 23.2535 88.1571 23.408C88.2343 23.5624 88.2343 23.7426 88.2343 23.9743V24H88.8521C89.0065 23.7941 89.1352 23.6396 89.2124 23.408C89.2896 23.1763 89.2124 22.7645 89.1352 22.3526ZM80.8984 9.148C80.7439 9.37966 80.7439 9.63706 80.7439 9.86872C80.7439 10.2806 80.8212 10.5894 80.8984 11.1042C80.5638 11.3359 80.4093 11.5161 80.0747 11.6705C80.1519 12.1596 80.2291 13.0605 80.2291 13.0605C80.3836 12.8288 80.3836 12.8288 80.5638 12.6486C80.8984 12.417 81.0528 12.2368 81.4647 11.9279C81.5419 11.7735 81.6191 11.8507 81.8765 11.6705C81.9537 11.5933 82.0309 11.5161 82.0309 11.4389C82.0309 11.2844 81.9537 11.1042 81.8765 10.9498C81.7993 10.7954 81.6448 10.3835 81.6448 10.3063C81.6448 9.6628 81.7221 9.48262 81.7993 8.91634C81.4647 8.81338 81.0528 8.81338 80.8984 9.148ZM82.0309 14.7078C81.2073 14.9652 80.641 15.1197 80.4865 15.2741C80.0747 15.5315 79.9203 15.686 79.5084 15.9176C79.5084 16.4067 79.5084 16.4067 79.5856 16.6641L79.6629 17.6422C79.8173 17.3848 80.3064 16.8958 80.5638 16.5869C80.9241 16.175 81.3617 15.8404 81.8765 15.6088C81.9537 15.2741 82.0309 15.0167 82.0309 14.7078ZM80.4865 22.4299C80.4865 22.4299 80.7439 22.2754 80.7439 22.0952C81.1558 21.6062 81.6448 21.1943 81.7221 21.1171C81.5676 20.7053 81.4904 20.6281 81.233 20.3964C81.1558 20.4736 80.7439 20.731 80.6667 20.8855C80.5123 20.9627 80.3321 21.0399 80.2549 21.1171C80.2549 21.2716 80.3321 21.3745 80.4093 21.529C80.4093 21.7091 80.4865 22.121 80.4865 22.4299ZM83.6011 20.731C83.5239 20.5766 83.2665 20.4736 83.112 20.3964C82.9576 20.3964 82.7774 20.731 82.7774 21.0399C82.8031 21.3745 82.8546 21.7091 82.9318 22.018C82.9318 22.0952 83.0863 22.1725 83.2665 22.2497C83.5239 22.4041 83.7555 22.5071 83.9872 22.6615C83.9872 22.6615 83.7555 21.9151 83.6526 21.529C83.6011 21.2973 83.7555 20.9627 83.6011 20.731ZM84.399 6.62548C84.4762 6.77992 85.4544 7.37194 85.8662 7.6036C86.2008 7.861 86.5097 7.93822 86.8443 8.09266C87.076 7.78378 87.2304 7.42342 87.3334 7.03732C87.5908 7.19176 87.8997 7.19176 88.1571 7.29472C88.1571 7.62934 88.1571 7.93822 88.2343 8.27284C88.2343 8.42728 88.3887 8.35006 88.7234 8.19562C89.2124 8.04118 89.7015 7.93822 89.9331 7.861C90.4994 7.52638 90.834 6.88288 91.3231 6.88288C91.7349 6.88288 92.4557 7.11454 92.6358 7.29472C92.8675 7.37194 93.0477 7.44916 93.2793 7.44916C93.511 7.44916 93.7169 7.26898 93.8971 7.11454C93.8714 6.98584 93.8456 6.85714 93.7941 6.75418C93.1506 6.34234 92.4299 5.9305 91.7349 5.64736C91.2459 6.0592 90.9113 6.39382 90.6796 6.39382C90.4222 6.39382 90.6024 5.90476 90.6024 5.57014C90.3707 5.57014 90.1905 5.57014 89.9589 5.49292C89.8044 6.0592 89.7015 6.80566 89.3154 6.9601C89.2124 7.01158 89.1095 7.03732 88.9808 7.03732V6.36808C88.9808 6.29086 89.3154 5.72458 89.2382 5.64736C89.2382 5.64736 88.5174 5.8018 88.3373 5.90476C88.26 5.98198 87.771 6.23938 87.6938 6.23938C87.5908 6.21364 87.4878 6.16216 87.3591 6.16216C87.1275 6.00772 86.9473 6.00772 86.7156 5.82754C86.381 6.80566 86.3038 7.03732 86.3038 6.88288C86.3038 6.88288 85.1712 6.13642 84.7594 5.64736C83.704 5.8018 83.704 5.98198 82.8031 6.29086C82.4685 6.62548 81.9795 7.01158 81.6706 7.52638C81.5161 7.861 81.336 8.01544 81.1815 8.35006L82.0052 8.68468C82.2111 8.42728 82.417 8.14414 82.5715 7.861C83.112 7.52638 84.0901 6.9601 84.399 6.62548ZM79.7658 17.9511V18.3629C79.7658 18.5174 79.843 19.4183 79.843 19.6757C79.9203 19.9331 79.9203 20.1647 79.9975 20.3964C80.0747 20.5508 80.1519 20.731 80.1519 20.8855C80.2549 20.834 80.3321 20.731 80.4093 20.6281C80.641 20.3707 80.7439 20.139 80.8984 19.8044C80.8212 19.2381 80.641 18.749 80.641 18.5946C80.641 17.9511 80.7182 17.7709 80.7954 17.3591C80.4865 17.5393 80.1004 17.7967 79.7658 17.9511ZM82.1339 13.4723C82.1339 12.9833 82.2883 12.9833 82.2111 12.8288C82.1339 12.6744 81.4904 12.8288 81.3102 12.8288C80.8984 12.906 80.1777 13.1634 80.1777 13.3179C80.1004 13.5495 80.1004 14.1416 80.1004 14.2188C80.1777 14.4762 80.1777 14.7078 80.2549 14.9395C80.4865 14.6821 80.5895 14.6049 80.7439 14.5277C80.8212 14.4505 81.7221 13.8069 81.7993 13.704C81.9537 13.5495 82.0309 13.6268 82.1339 13.4723ZM81.4647 23.8198C81.3874 23.897 81.336 23.9485 81.233 24H80.9241C80.7954 23.5882 80.6152 23.2021 80.4093 22.8417C80.4093 22.8417 81.6191 22.3526 81.9537 22.3526C82.0309 22.5071 82.1082 22.7645 82.2883 22.9189C82.1339 23.0991 81.6448 23.5882 81.4647 23.8198Z" fill="white"/>
</g>
<mask id="mask1_9_50" style="mask-type:luminance" maskUnits="userSpaceOnUse" x="114" y="0" width="45" height="28">
<path d="M158.666 0H114.333V28H158.666V0Z" fill="white"/>
</mask>
<g mask="url(#mask1_9_50)">
<path d="M156.204 0C157.558 0 158.667 1.14545 158.667 2.54546V25.4546C158.667 26.8546 157.558 28 156.204 28H116.796C115.442 28 114.333 26.8546 114.333 25.4546V2.54546C114.333 1.14545 115.442 0 116.796 0H156.204Z" fill="white"/>
<path fill-rule="evenodd" clip-rule="evenodd" d="M136.4 8.16621C136.144 9.92378 135.94 11.4035 135.571 13.708C136.567 13.6869 138.829 14.0737 139.327 10.9243C139.739 8.30425 137.902 8.06158 136.4 8.16621Z" fill="url(#paint0_linear_9_50)"/>
<g clip-path="url(#clip2_9_50)">
<path d="M153 -2H121V30H153V-2Z" fill="white"/>
<path d="M145.938 2.6875H128.062C126.751 2.6875 125.688 3.75082 125.688 5.0625V22.9375C125.688 24.2492 126.751 25.3125 128.062 25.3125H145.938C147.249 25.3125 148.312 24.2492 148.312 22.9375V5.0625C148.312 3.75082 147.249 2.6875 145.938 2.6875Z" fill="white"/>
<path d="M125.688 21.9375V22.9375C125.688 24.2492 126.751 25.3125 128.062 25.3125H145.938C147.249 25.3125 148.312 24.2492 148.312 22.9375V21.9375H125.688Z" fill="#F06300"/>
<path d="M132.789 10.8474C133.052 10.8474 133.207 11.0951 133.207 11.544C133.207 12.0394 133.052 12.3026 132.789 12.3026C132.511 12.3026 132.356 12.0704 132.356 11.5905C132.356 11.1106 132.511 10.8474 132.789 10.8474Z" fill="#0059AB"/>
<path d="M134.988 12.2871C135.204 12.2871 135.39 12.1322 135.39 11.962V11.6369C135.127 11.7298 135.08 11.7452 135.019 11.7607C134.802 11.8227 134.74 11.8846 134.74 12.0394C134.74 12.1942 134.833 12.2871 134.988 12.2871Z" fill="#0059AB"/>
<path d="M140.282 11.575C140.282 11.1261 140.127 10.8629 139.848 10.8629C139.57 10.8629 139.4 11.1416 139.384 11.6059C139.384 12.0704 139.539 12.3181 139.817 12.3181C140.096 12.3181 140.282 12.0239 140.282 11.575Z" fill="#0059AB"/>
<path d="M142.728 11.962C142.728 12.1322 142.542 12.2871 142.325 12.2871C142.171 12.2871 142.078 12.1942 142.078 12.0394C142.078 11.8846 142.14 11.8227 142.356 11.7607C142.418 11.7452 142.465 11.7298 142.728 11.6369V11.962Z" fill="#0059AB"/>
<path d="M135.145 15.7034V16.6787H135.687C136.089 16.6787 136.26 16.5239 136.26 16.1833C136.26 15.8738 136.074 15.7034 135.718 15.7034H135.145Z" fill="#0059AB"/>
<path d="M135.145 14.4341V15.3164H135.625C136.027 15.3164 136.198 15.1771 136.198 14.8675C136.198 14.5579 136.058 14.4341 135.64 14.4341H135.145Z" fill="#0059AB"/>
<path d="M138.102 16.6942C138.319 16.6942 138.504 16.5394 138.504 16.3691V16.044C138.241 16.1369 138.195 16.1524 138.133 16.1679C137.916 16.2297 137.854 16.2917 137.854 16.4465C137.854 16.6013 137.947 16.6942 138.102 16.6942Z" fill="#0059AB"/>
<path fill-rule="evenodd" clip-rule="evenodd" d="M125.688 5.0625C125.688 3.75083 126.751 2.6875 128.062 2.6875H145.938C147.249 2.6875 148.312 3.75083 148.312 5.0625V20.375H125.688V5.0625ZM131.117 9.65537H130.761L130.699 9.85662C130.467 9.65537 130.189 9.5625 129.833 9.5625C129.089 9.5625 128.625 9.9495 128.625 10.5533C128.625 10.77 128.687 10.9557 128.811 11.0951C128.935 11.2499 129.12 11.3273 129.507 11.4202L129.972 11.5131C130.142 11.544 130.281 11.5904 130.374 11.6214C130.529 11.6679 130.591 11.7608 130.591 11.9001C130.591 12.1478 130.374 12.3026 130.018 12.3026C129.693 12.3026 129.368 12.1632 129.229 11.962C129.151 11.8691 129.105 11.7607 129.058 11.5131H128.641V12.6122H128.966L129.058 12.3645C129.337 12.5967 129.647 12.7051 130.065 12.7051C130.792 12.7051 131.241 12.3181 131.241 11.6988C131.241 11.3273 131.086 11.0796 130.761 10.9403C130.576 10.8629 130.452 10.8319 129.863 10.7081C129.399 10.6152 129.244 10.5223 129.244 10.3211C129.244 10.0888 129.492 9.91856 129.817 9.91856C130.312 9.91856 130.638 10.1972 130.699 10.6926H131.117V9.65537ZM132.356 10.5068H131.35V10.8629H131.535C131.659 10.8629 131.69 10.9093 131.69 11.0641V12.9683C131.69 13.1231 131.644 13.1695 131.535 13.1695H131.35V13.5256H132.727V13.1695H132.526C132.402 13.1695 132.371 13.1231 132.371 12.9683V12.4419C132.542 12.6277 132.727 12.7051 132.991 12.7051C133.594 12.7051 133.919 12.2716 133.919 11.4976C133.919 10.8319 133.594 10.4294 133.037 10.4294C132.743 10.4294 132.542 10.5223 132.356 10.7545V10.5068ZM136.241 12.0858V11.8381H136.567V12.0858C136.567 12.5038 136.396 12.6896 136.009 12.6896C135.7 12.6896 135.529 12.5967 135.436 12.3645C135.251 12.5812 135.019 12.6896 134.74 12.6896C134.337 12.6896 134.09 12.4729 134.09 12.1013C134.09 11.8381 134.229 11.6369 134.461 11.5595C134.506 11.5368 134.568 11.5224 134.647 11.5042L134.647 11.5042L134.647 11.5041C134.676 11.4975 134.707 11.4904 134.74 11.4821L134.895 11.4511L134.988 11.4356C135.313 11.3583 135.406 11.2809 135.406 11.0951C135.406 10.8784 135.22 10.7545 134.895 10.7545C134.771 10.7545 134.724 10.7545 134.632 10.8009C134.771 10.8474 134.833 10.9248 134.833 11.0486C134.833 11.2189 134.693 11.3582 134.508 11.3582C134.306 11.3582 134.152 11.2034 134.152 10.9867C134.152 10.6152 134.461 10.4139 135.049 10.4139C135.762 10.4139 136.04 10.6307 136.04 11.1415V12.1322C136.04 12.2406 136.071 12.2871 136.133 12.2871C136.21 12.2871 136.241 12.2406 136.241 12.0858ZM137.681 10.5068H136.659V10.8628H136.861C136.984 10.8628 137.015 10.9092 137.015 11.0641V12.0703C137.015 12.2251 136.969 12.2716 136.861 12.2716H136.659V12.6276H138.099V12.2716H137.836C137.728 12.2716 137.681 12.2251 137.681 12.0703V11.544C137.681 11.0796 137.851 10.7699 138.099 10.7699C138.006 10.8938 137.975 10.9557 137.975 11.0331C137.975 11.2189 138.115 11.3582 138.285 11.3582C138.517 11.3582 138.656 11.2034 138.656 10.9403C138.656 10.6616 138.471 10.4604 138.207 10.4604C137.975 10.4604 137.851 10.5377 137.635 10.8319L137.681 10.5068ZM139.895 9.65537H140.917V12.0704C140.917 12.2252 140.948 12.2716 141.071 12.2716H141.257V12.6277H140.297V12.38C140.112 12.5967 139.895 12.7051 139.616 12.7051C139.059 12.7051 138.687 12.2716 138.687 11.6214C138.687 10.9248 139.074 10.4294 139.616 10.4294C139.864 10.4294 140.034 10.5068 140.235 10.7391V10.2127C140.235 10.0579 140.205 10.0114 140.081 10.0114H139.895V9.65537ZM143.579 11.8381V12.0858C143.579 12.2406 143.548 12.2871 143.471 12.2871C143.409 12.2871 143.378 12.2406 143.378 12.1322V11.1415C143.378 10.6307 143.099 10.4139 142.387 10.4139C141.799 10.4139 141.489 10.6152 141.489 10.9867C141.489 11.2034 141.644 11.3582 141.845 11.3582C142.031 11.3582 142.17 11.2189 142.17 11.0486C142.17 10.9248 142.109 10.8474 141.969 10.8009C142.062 10.7545 142.109 10.7545 142.232 10.7545C142.557 10.7545 142.743 10.8784 142.743 11.0951C142.743 11.2809 142.65 11.3583 142.325 11.4356L142.232 11.4511L142.078 11.4821C142.044 11.4904 142.014 11.4976 141.985 11.5042C141.906 11.5224 141.844 11.5368 141.799 11.5595C141.567 11.6369 141.427 11.8381 141.427 12.1013C141.427 12.4729 141.675 12.6896 142.078 12.6896C142.356 12.6896 142.589 12.5812 142.774 12.3645C142.867 12.5967 143.037 12.6896 143.347 12.6896C143.734 12.6896 143.904 12.5038 143.904 12.0858V11.8381H143.579ZM144.075 11.2654H145.375V11.8227H144.075V11.2654ZM143.675 14.0625H142.669V14.4186H142.854C142.978 14.4186 143.009 14.465 143.009 14.6198V16.4775C143.009 16.6323 142.963 16.6787 142.854 16.6787H142.669V17.0347H143.922V16.6787H143.845C143.721 16.6787 143.675 16.6323 143.675 16.4775V16.2607L143.953 16.0595L144.294 16.5549C144.31 16.5704 144.325 16.6168 144.325 16.6322C144.325 16.6787 144.294 16.6942 144.201 16.6942H144.093V17.0502H145.378V16.6942H145.285C145.207 16.6942 145.176 16.6633 145.053 16.5084L144.464 15.6879L144.82 15.4248C144.96 15.3164 145.053 15.2854 145.207 15.2854H145.378V14.9294H144V15.2854H144.217C144.294 15.2854 144.325 15.3009 144.325 15.3319C144.325 15.3474 144.31 15.3938 144.263 15.4093L143.675 15.8428V14.0625ZM133.938 14.4341V14.078H135.965C136.631 14.078 136.987 14.3411 136.987 14.8365C136.987 15.1616 136.817 15.3474 136.383 15.5022C136.832 15.5951 137.065 15.8428 137.065 16.2453C137.065 16.7561 136.647 17.0658 135.965 17.0658H133.938V16.6942H134.17C134.355 16.6942 134.417 16.6323 134.417 16.4775V14.6507C134.417 14.4959 134.355 14.4341 134.17 14.4341H133.938ZM139.356 16.2453H139.681V16.4929C139.681 16.9109 139.511 17.0967 139.124 17.0967C138.814 17.0967 138.644 17.0038 138.551 16.7716C138.365 16.9883 138.133 17.0967 137.854 17.0967C137.452 17.0967 137.204 16.8799 137.204 16.5084C137.204 16.2453 137.343 16.044 137.575 15.9666C137.621 15.9439 137.683 15.9296 137.761 15.9113C137.79 15.9047 137.821 15.8975 137.854 15.8892L138.009 15.8582L138.102 15.8428C138.427 15.7654 138.52 15.6879 138.52 15.5022C138.52 15.2854 138.334 15.1616 138.009 15.1616C137.885 15.1616 137.839 15.1616 137.746 15.2081C137.885 15.2545 137.947 15.3319 137.947 15.4557C137.947 15.626 137.808 15.7654 137.622 15.7654C137.421 15.7654 137.266 15.6106 137.266 15.3938C137.266 15.0223 137.575 14.8211 138.164 14.8211C138.876 14.8211 139.154 15.0378 139.154 15.5486V16.5394C139.154 16.6478 139.185 16.6942 139.247 16.6942C139.325 16.6942 139.356 16.6477 139.356 16.4929V16.2453ZM140.733 14.9139H139.758V15.27H139.944C140.068 15.27 140.099 15.3164 140.099 15.4712V16.4774C140.099 16.6323 140.052 16.6787 139.944 16.6787H139.758V17.0347H141.028V16.6787H140.919C140.795 16.6787 140.764 16.6323 140.764 16.4774V15.7963C140.764 15.4247 140.888 15.2545 141.182 15.2545C141.415 15.2545 141.507 15.3783 141.507 15.6879V16.462C141.507 16.6167 141.461 16.6632 141.353 16.6632H141.229V17.0193H142.529V16.6632H142.344C142.22 16.6632 142.173 16.6167 142.173 16.462V15.4557C142.173 15.0532 141.91 14.8211 141.461 14.8211C141.151 14.8211 140.981 14.9139 140.718 15.2081L140.733 14.9139Z" fill="#0059AB"/>
</g>
<path opacity="0.25" d="M155.825 28H117.175C115.607 28 114.333 26.7435 114.333 25.2V2.8C114.333 1.2565 115.607 0 117.175 0H155.825C157.393 0 158.667 1.2565 158.667 2.8V25.2C158.667 26.7435 157.393 28 155.825 28ZM117.175 1.12C116.235 1.12 115.47 1.87367 115.47 2.8V25.2C115.47 26.1263 116.235 26.88 117.175 26.88H155.825C156.765 26.88 157.53 26.1263 157.53 25.2V2.8C157.53 1.87367 156.765 1.12 155.825 1.12H117.175Z" fill="#A7A8AB"/>
</g>
<mask id="mask2_9_50" style="mask-type:luminance" maskUnits="userSpaceOnUse" x="166" y="0" width="46" height="28">
<path d="M211 0H166.667V28H211V0Z" fill="white"/>
</mask>
<g mask="url(#mask2_9_50)">
<path d="M208.537 0C209.892 0 211 1.14545 211 2.54546V25.4546C211 26.8546 209.892 28 208.537 28H169.13C167.775 28 166.667 26.8546 166.667 25.4546V2.54546C166.667 1.14545 167.775 0 169.13 0H208.537Z" fill="white"/>
<path d="M186.533 6.55504C186.675 6.86492 186.867 7.13605 187.106 7.37088C187.345 7.6057 187.626 7.78848 187.953 7.92162C188.279 8.05477 188.626 8.12013 188.994 8.12013C189.361 8.12013 189.706 8.05356 190.028 7.92162C190.35 7.78848 190.631 7.6057 190.875 7.37088C191.118 7.13726 191.309 6.86492 191.448 6.55504C191.586 6.24517 191.654 5.91351 191.654 5.56007C191.654 5.20662 191.585 4.87496 191.448 4.56509C191.309 4.25522 191.119 3.98408 190.875 3.74926C190.631 3.51565 190.35 3.33166 190.028 3.19851C189.706 3.06536 189.361 3 188.994 3C188.626 3 188.279 3.06657 187.953 3.19851C187.628 3.33166 187.345 3.51443 187.106 3.74926C186.867 3.98408 186.675 4.25522 186.533 4.56509C186.391 4.87496 186.319 5.20662 186.319 5.56007C186.319 5.91351 186.39 6.24517 186.533 6.55504ZM181.206 21.4349C181.345 21.7448 181.535 22.0159 181.779 22.2507C182.021 22.4856 182.304 22.6683 182.626 22.8015C182.948 22.9346 183.293 23 183.66 23H194.341C194.708 23 195.055 22.9334 195.381 22.8015C195.707 22.6683 195.99 22.4856 196.229 22.2507C196.468 22.0171 196.657 21.7448 196.794 21.4349C196.932 21.125 197 20.7934 197 20.4399V14.7896H184.721V13.2512H197V12.2296C197 11.8761 196.931 11.5445 196.794 11.2346C196.655 10.9247 196.468 10.6536 196.229 10.4187C195.99 10.1851 195.707 10.0011 195.381 9.868C195.055 9.73485 194.708 9.66949 194.341 9.66949H183.66C183.293 9.66949 182.948 9.73606 182.626 9.868C182.304 10.0011 182.023 10.1839 181.779 10.4187C181.535 10.6536 181.345 10.9247 181.206 11.2346C181.068 11.5445 181 11.8761 181 12.2296V17.8799H193.253V19.4183H181V20.4399C181 20.7934 181.069 21.125 181.206 21.4349Z" fill="#2870ED" fill-opacity="0.921569"/>
<path opacity="0.25" d="M208.158 28H169.509C167.941 28 166.667 26.7435 166.667 25.2V2.8C166.667 1.2565 167.941 0 169.509 0H208.158C209.726 0 211 1.2565 211 2.8V25.2C211 26.7435 209.726 28 208.158 28ZM169.509 1.12C168.568 1.12 167.803 1.87367 167.803 2.8V25.2C167.803 26.1263 168.568 26.88 169.509 26.88H208.158C209.098 26.88 209.864 26.1263 209.864 25.2V2.8C209.864 1.87367 209.098 1.12 208.158 1.12H169.509Z" fill="#A7A8AB"/>
</g>
<mask id="mask3_9_50" style="mask-type:luminance" maskUnits="userSpaceOnUse" x="219" y="0" width="45" height="28">
<path d="M263.333 0H219V28H263.333V0Z" fill="white"/>
</mask>
<g mask="url(#mask3_9_50)">
<path d="M260.87 0C262.225 0 263.333 1.14545 263.333 2.54546V25.4546C263.333 26.8546 262.225 28 260.87 28H221.463C220.108 28 219 26.8546 219 25.4546V2.54546C219 1.14545 220.108 0 221.463 0H260.87Z" fill="white"/>
<g clip-path="url(#clip3_9_50)">
<path d="M251.092 11.9193C249.953 11.9193 249.114 12.4561 248.724 13.2316C248.724 11.3825 249.384 9.77193 250.912 9.77193C251.902 9.77193 252.291 10.3386 252.471 11.2333L253.88 10.9649C253.55 9.38421 252.531 8.60877 250.912 8.60877C248.844 8.60877 247.315 10.1895 247.315 13.7088C247.315 16.8404 248.604 18.3912 250.823 18.3912C252.651 18.3912 254.03 17.1386 254.03 15.1105C254 13.5 253.161 11.9193 251.092 11.9193ZM250.823 17.2281C249.683 17.2281 248.904 16.1842 248.754 14.8123C249.114 13.6491 249.863 13.0526 250.763 13.0526C251.932 13.0526 252.591 13.9175 252.591 15.1105C252.591 16.4228 251.842 17.2281 250.823 17.2281ZM243.239 15.2596C242.789 15.707 241.74 16.5421 241.02 17.0491H245.367V18.3018H238.982V17.1684C239.731 16.6316 241.26 15.4982 242.219 14.5439C243.149 13.6193 243.748 12.7842 243.748 11.5614C243.748 10.3386 243.089 9.8614 242.189 9.8614C241.26 9.8614 240.511 10.3982 240.511 11.5018C240.511 11.7404 240.541 12.0088 240.601 12.3368L239.162 12.1579C239.102 11.9193 239.072 11.6509 239.072 11.4123C239.072 9.92105 240.121 8.6386 242.249 8.6386C243.988 8.6386 245.277 9.53333 245.277 11.5018C245.277 13.2912 243.958 14.6035 243.359 15.1702L243.239 15.2596ZM229 5H236.734V6.25263H229V5ZM235.295 8.72807V15.2596C235.295 15.8263 235.295 16.1842 235.325 16.5421H235.295C235.145 16.1544 234.995 15.8263 234.725 15.3789L230.829 8.72807H229.09V18.3018H230.469V11.7404C230.469 11.1737 230.469 10.8158 230.439 10.4579H230.469C230.619 10.8456 230.769 11.1737 231.038 11.6211L234.935 18.2719H236.704V8.72807H235.295ZM229 20.7772H236.734V22H229V20.7772Z" fill="black"/>
</g>
<path opacity="0.25" d="M260.491 28H221.842C220.274 28 219 26.7435 219 25.2V2.8C219 1.2565 220.274 0 221.842 0H260.491C262.059 0 263.333 1.2565 263.333 2.8V25.2C263.333 26.7435 262.059 28 260.491 28ZM221.842 1.12C220.902 1.12 220.136 1.87367 220.136 2.8V25.2C220.136 26.1263 220.902 26.88 221.842 26.88H260.491C261.432 26.88 262.197 26.1263 262.197 25.2V2.8C262.197 1.87367 261.432 1.12 260.491 1.12H221.842Z" fill="#A7A8AB"/>
</g>
</g>
<defs>
<linearGradient id="paint0_linear_9_50" x1="127.904" y1="25.9923" x2="146.937" y2="7.54945" gradientUnits="userSpaceOnUse">
<stop offset="0.113" stop-color="#0D59EC"/>
<stop offset="0.742" stop-color="#008FE1"/>
<stop offset="1" stop-color="#20AFFF"/>
</linearGradient>
<clipPath id="clip0_9_50">
<rect width="264" height="28" fill="white"/>
</clipPath>
<clipPath id="clip1_9_50">
<rect width="20" height="20" fill="white" transform="translate(74 4)"/>
</clipPath>
<clipPath id="clip2_9_50">
<rect width="32" height="32" fill="white" transform="translate(121 -2)"/>
</clipPath>
<clipPath id="clip3_9_50">
<rect width="25" height="17" fill="white" transform="translate(229 5)"/>
</clipPath>
</defs>
</svg>
