<svg width="264" height="28" viewBox="0 0 264 28" fill="none" xmlns="http://www.w3.org/2000/svg">
    <rect width="46" height="28" rx="4" fill="#131735"/>
    <path d="M17.3935 10.9429L12.4051 21.3864L7.4187 10.9429H9.62749L12.4051 16.9L15.1865 10.9429H17.3935Z"
          fill="#6AE69E"/>
    <path d="M17.3937 6.4043H7.42163V8.23237H17.3937V6.4043Z" fill="#6AE69E"/>
    <path d="M31.5488 6.40332H29.5242V21.1314H31.5488V6.40332Z" fill="#6AE69E"/>
    <path d="M36.8664 10.9412V8.23096H34.8417V10.9412H33.1902V12.7692H34.8417V21.1306H36.8664V12.7692C36.8664 12.7692 37.4753 12.7692 37.6301 12.7692C38.0889 12.7692 38.5043 12.4995 38.7076 12.0753C38.7957 11.8916 39.2495 10.9412 39.2495 10.9412H36.8664Z"
          fill="#6AE69E"/>
    <path d="M22.5764 10.8374C19.665 10.8374 17.3049 13.1634 17.3049 16.033C17.3049 18.9026 19.665 21.2287 22.5764 21.2287C25.4878 21.2287 27.8479 18.9026 27.8479 16.033C27.8479 13.1634 25.4878 10.8374 22.5764 10.8374ZM22.5764 19.2778C20.7684 19.2778 19.303 17.8252 19.303 16.033C19.303 14.2408 20.7687 12.7883 22.5764 12.7883C24.3844 12.7883 25.8498 14.2408 25.8498 16.033C25.8498 17.8252 24.3841 19.2778 22.5764 19.2778Z"
          fill="#6AE69E"/>
    <g clip-path="url(#clip0_83_193)">
        <path d="M103.87 0C105.225 0 106.333 1.14545 106.333 2.54546V25.4546C106.333 26.8546 105.225 28 103.87 28H64.463C63.1083 28 62 26.8546 62 25.4546V2.54546C62 1.14545 63.1083 0 64.463 0H103.87Z"
              fill="white"/>
        <path d="M91.916 5.8335H76.6506V21.0989H91.916V5.8335Z" fill="white"/>
        <path d="M99.5489 13.4841L91.9163 5.8335V21.1168L99.5489 13.4841Z" fill="#DB0011"/>
        <path d="M84.2833 13.4841L91.916 5.8335H76.6506L84.2833 13.4841Z" fill="#DB0011"/>
        <path d="M69 13.4841L76.6506 21.1168V5.8335L69 13.4841Z" fill="#DB0011"/>
        <path d="M84.2833 13.4839L76.6506 21.1166H91.916L84.2833 13.4839Z" fill="#DB0011"/>
        <path opacity="0.25"
              d="M103.491 28H64.842C63.274 28 62 26.7435 62 25.2V2.8C62 1.2565 63.274 0 64.842 0H103.491C105.059 0 106.333 1.2565 106.333 2.8V25.2C106.333 26.7435 105.059 28 103.491 28ZM64.842 1.12C63.9017 1.12 63.1363 1.87367 63.1363 2.8V25.2C63.1363 26.1263 63.9017 26.88 64.842 26.88H103.491C104.432 26.88 105.197 26.1263 105.197 25.2V2.8C105.197 1.87367 104.432 1.12 103.491 1.12H64.842Z"
              fill="#A7A8AB"/>
    </g>
    <g clip-path="url(#clip1_83_193)">
        <path d="M156.204 0C157.558 0 158.667 1.14545 158.667 2.54546V25.4546C158.667 26.8546 157.558 28 156.204 28H116.796C115.442 28 114.333 26.8546 114.333 25.4546V2.54546C114.333 1.14545 115.442 0 116.796 0H156.204Z"
              fill="white"/>
        <path fill-rule="evenodd" clip-rule="evenodd"
              d="M136.4 8.16621C136.144 9.92378 135.94 11.4035 135.571 13.708C136.567 13.6869 138.829 14.0737 139.327 10.9243C139.739 8.30425 137.902 8.06158 136.4 8.16621Z"
              fill="url(#paint0_linear_83_193)"/>
        <path fill-rule="evenodd" clip-rule="evenodd"
              d="M145.031 20.8372C145.418 21.6786 145.028 22.7425 144.219 23.1706C143.755 23.4168 143.224 23.6454 142.695 23.7738C141.821 23.9773 140.928 24.0905 140.029 24.1114C138.593 24.1114 137.153 23.3096 136.532 22.3336C136.372 22.6704 135.793 23.3474 134.778 23.6656C134.137 23.8679 133.364 24.1114 131.751 24.1097C130.306 24.1088 129.481 23.4696 129.046 22.9332C128.351 22.0804 128.249 20.9972 128.385 20.2674L128.392 20.2323C128.938 17.5638 129.683 12.7122 130.027 10.2812L130.03 10.2574C130.124 9.58306 130.22 8.9087 130.277 8.22993C130.305 7.88791 130.324 7.54414 130.327 7.20124C130.331 6.8768 130.3 6.55325 130.303 6.22881C130.306 5.92284 130.357 5.61335 130.504 5.34255C130.743 4.90557 131.18 4.56092 131.643 4.41057C132.151 4.24528 132.681 4.17933 133.208 4.11955C133.748 4.05653 134.288 4.00377 134.83 3.96128C135.49 3.91398 136.152 3.88993 136.814 3.88919C137.946 3.88831 139.086 3.90677 140.202 4.13098C141.34 4.35957 142.488 4.79655 143.386 5.56236C144.001 6.08726 144.489 6.74931 144.856 7.4738C145.177 8.11212 145.307 8.78385 145.385 9.29731C145.523 10.2189 145.487 11.1572 145.278 12.066C145.113 12.7286 144.834 13.3593 144.454 13.9317C144.027 14.5788 143.479 15.1662 142.78 15.7253C143.205 16.9299 144.315 19.2827 145.031 20.8372ZM132.31 6.35102C132.337 6.79767 132.341 7.24784 132.321 7.69624C132.301 8.15432 132.261 8.61064 132.208 9.06608C132.157 9.51976 132.095 9.97168 132.032 10.4236L132.011 10.5713C131.812 11.9842 131.603 13.3954 131.384 14.8039C131.153 16.2845 130.894 17.7572 130.636 19.2317C130.516 19.9193 130.246 20.8002 130.615 21.4561C130.943 22.0417 131.785 22.1129 132.372 22.054C134.51 21.8412 134.85 21.3779 134.85 21.3779C134.424 20.9172 134.795 18.8176 135.224 15.9953H136.743L138.334 20.6859C138.334 20.6859 138.803 22.1393 140.106 22.069C141.775 21.9793 143.003 21.6074 143.18 21.4008C142.666 21.1212 141.196 17.5374 140.395 14.9059C140.783 14.6755 141.159 14.425 141.514 14.1445C141.998 13.7594 142.447 13.3154 142.791 12.794C143.038 12.4194 143.226 12.0071 143.334 11.5692C143.391 11.338 143.423 11.0962 143.443 10.8597C143.479 10.4429 143.465 10.0209 143.403 9.60768C143.343 9.21027 143.254 8.76802 143.072 8.40929C142.734 7.73844 142.255 7.15288 141.602 6.77833C140.5 6.14704 139.23 6.02659 137.992 5.96065C136.649 5.88785 135.303 5.93081 133.968 6.08901C133.818 6.1066 132.304 6.23672 132.31 6.35102Z"
              fill="url(#paint1_linear_83_193)"/>
        <path opacity="0.25"
              d="M155.825 28H117.175C115.607 28 114.333 26.7435 114.333 25.2V2.8C114.333 1.2565 115.607 0 117.175 0H155.825C157.393 0 158.667 1.2565 158.667 2.8V25.2C158.667 26.7435 157.393 28 155.825 28ZM117.175 1.12C116.235 1.12 115.47 1.87367 115.47 2.8V25.2C115.47 26.1263 116.235 26.88 117.175 26.88H155.825C156.765 26.88 157.53 26.1263 157.53 25.2V2.8C157.53 1.87367 156.765 1.12 155.825 1.12H117.175Z"
              fill="#A7A8AB"/>
    </g>
    <g clip-path="url(#clip2_83_193)">
        <path d="M208.537 0C209.892 0 211 1.14545 211 2.54546V25.4546C211 26.8546 209.892 28 208.537 28H169.13C167.775 28 166.667 26.8546 166.667 25.4546V2.54546C166.667 1.14545 167.775 0 169.13 0H208.537Z"
              fill="white"/>
        <g clip-path="url(#clip3_83_193)">
            <path fill-rule="evenodd" clip-rule="evenodd"
                  d="M198.159 17.1809C198.159 19.9363 193.982 22.1653 188.827 22.1653C183.671 22.1653 179.5 19.9363 179.5 17.1809C179.5 15.1931 181.651 13.4904 184.781 12.6789C184.768 12.869 184.773 13.0587 184.794 13.248C184.81 13.4342 184.841 13.6201 184.887 13.8055C184.929 13.9871 184.988 14.1668 185.063 14.3446C185.135 14.5178 185.218 14.6871 185.314 14.8525L188.23 19.8867C188.285 19.9813 188.335 20.076 188.381 20.1706C188.432 20.2699 188.476 20.3692 188.513 20.4685C188.551 20.5677 188.584 20.6689 188.614 20.772C188.643 20.8752 188.667 20.9802 188.689 21.0872L188.814 20.8771C188.989 20.5735 189.127 20.2514 189.222 19.9167C189.31 19.5761 189.353 19.2298 189.353 18.8835C189.353 18.5303 189.31 18.184 189.222 17.8492C189.127 17.5087 188.989 17.1866 188.814 16.883L186.469 12.8774C186.292 12.5738 186.161 12.2518 186.073 11.917C185.986 11.5765 185.935 11.2302 185.941 10.8827C185.941 10.5364 185.986 10.1901 186.079 9.85532C186.167 9.52056 186.305 9.19272 186.48 8.89606L186.607 8.68481C186.627 8.79255 186.652 8.89798 186.682 9.0011C186.711 9.10422 186.747 9.20542 186.788 9.3047C186.825 9.4032 186.867 9.50209 186.913 9.60137C186.959 9.70064 187.009 9.79568 187.064 9.88649L188.431 12.2148L190.57 15.8672C190.624 15.958 190.674 16.053 190.72 16.1523C190.766 16.2477 190.808 16.347 190.846 16.4501C190.884 16.5486 190.917 16.6495 190.946 16.7526C190.979 16.8565 191.007 16.9619 191.028 17.0689L191.153 16.8588C191.329 16.5552 191.46 16.2331 191.555 15.8926C191.643 15.5578 191.693 15.2115 191.693 14.8641C191.693 14.512 191.643 14.1645 191.555 13.8309C191.46 13.4904 191.329 13.1683 191.153 12.8647L188.814 8.87066C188.638 8.56706 188.506 8.245 188.413 7.90447C188.325 7.57086 188.275 7.2234 188.275 6.87132C188.275 6.52386 188.325 6.17755 188.413 5.83702C188.506 5.50226 188.638 5.18019 188.814 4.8766L188.939 4.6665C188.96 4.77347 188.985 4.8789 189.015 4.9828C189.048 5.08592 189.084 5.18673 189.121 5.28524C189.159 5.38451 189.2 5.48379 189.246 5.58306C189.292 5.67772 189.343 5.77276 189.397 5.86819L192.32 10.8527C192.4 10.9927 192.471 11.137 192.533 11.2856C192.596 11.4341 192.651 11.5849 192.697 11.7381C192.743 11.8904 192.778 12.0451 192.803 12.2021C192.828 12.363 192.845 12.5219 192.853 12.6789C195.982 13.4904 198.146 15.1931 198.159 17.1809Z"
                  fill="#EC0000"/>
        </g>
        <path opacity="0.25"
              d="M208.158 28H169.509C167.941 28 166.667 26.7435 166.667 25.2V2.8C166.667 1.2565 167.941 0 169.509 0H208.158C209.726 0 211 1.2565 211 2.8V25.2C211 26.7435 209.726 28 208.158 28ZM169.509 1.12C168.568 1.12 167.803 1.87367 167.803 2.8V25.2C167.803 26.1263 168.568 26.88 169.509 26.88H208.158C209.098 26.88 209.864 26.1263 209.864 25.2V2.8C209.864 1.87367 209.098 1.12 208.158 1.12H169.509Z"
              fill="#A7A8AB"/>
    </g>
    <g clip-path="url(#clip4_83_193)">
        <path d="M260.87 0C262.225 0 263.333 1.14545 263.333 2.54546V25.4546C263.333 26.8546 262.225 28 260.87 28H221.463C220.108 28 219 26.8546 219 25.4546V2.54546C219 1.14545 220.108 0 221.463 0H260.87Z"
              fill="white"/>
        <g clip-path="url(#clip5_83_193)">
            <path fill-rule="evenodd" clip-rule="evenodd"
                  d="M231.958 4.79102H250.376V23.2088H231.958V4.79102ZM234.571 7.40435V20.7199H247.887V7.40435H234.571ZM243.034 9.27102H246.394L239.425 18.8532H236.065L243.034 9.27102Z"
                  fill="#0018A8"/>
        </g>
        <path opacity="0.25"
              d="M260.491 28H221.842C220.274 28 219 26.7435 219 25.2V2.8C219 1.2565 220.274 0 221.842 0H260.491C262.059 0 263.333 1.2565 263.333 2.8V25.2C263.333 26.7435 262.059 28 260.491 28ZM221.842 1.12C220.902 1.12 220.136 1.87367 220.136 2.8V25.2C220.136 26.1263 220.902 26.88 221.842 26.88H260.491C261.432 26.88 262.197 26.1263 262.197 25.2V2.8C262.197 1.87367 261.432 1.12 260.491 1.12H221.842Z"
              fill="#A7A8AB"/>
    </g>
    <defs>
        <linearGradient id="paint0_linear_83_193" x1="127.904" y1="25.9923" x2="146.937" y2="7.54943"
                        gradientUnits="userSpaceOnUse">
            <stop offset="0.113" stop-color="#0D59EC"/>
            <stop offset="0.742" stop-color="#008FE1"/>
            <stop offset="1" stop-color="#20AFFF"/>
        </linearGradient>
        <linearGradient id="paint1_linear_83_193" x1="127.904" y1="25.9927" x2="146.937" y2="7.54986"
                        gradientUnits="userSpaceOnUse">
            <stop offset="0.113" stop-color="#0D59EC"/>
            <stop offset="0.742" stop-color="#008FE1"/>
            <stop offset="1" stop-color="#20AFFF"/>
        </linearGradient>
        <clipPath id="clip0_83_193">
            <rect width="44.3333" height="28" fill="white" transform="translate(62)"/>
        </clipPath>
        <clipPath id="clip1_83_193">
            <rect width="44.3333" height="28" fill="white" transform="translate(114.333)"/>
        </clipPath>
        <clipPath id="clip2_83_193">
            <rect width="44.3333" height="28" fill="white" transform="translate(166.667)"/>
        </clipPath>
        <clipPath id="clip3_83_193">
            <rect width="18.6667" height="17.5" fill="white" transform="translate(179.5 4.6665)"/>
        </clipPath>
        <clipPath id="clip4_83_193">
            <rect width="44.3333" height="28" fill="white" transform="translate(219)"/>
        </clipPath>
        <clipPath id="clip5_83_193">
            <rect width="18.6667" height="18.6667" fill="white" transform="translate(231.833 4.6665)"/>
        </clipPath>
    </defs>
</svg>
