<svg aria-label="Volt" width="68" height="32" viewBox="0 0 68 32" xmlns="http://www.w3.org/2000/svg">
    <path fill="currentColor" fill-rule="nonzero" d="m4.8224 9.85542857 5.9889143 12.89525713L16.8084 9.85542857h4.4029143l-10.4 21.85857143L.41577143 9.85542857H4.8224Zm27.6142286-.22137143c6.1077714 0 11.0774857 4.91697146 11.0774857 10.96011426 0 6.0431429-4.9689714 10.9601143-11.0774857 10.9601143-6.1077715 0-11.0774857-4.9169714-11.0774857-10.9601143 0-6.0431428 4.9697142-10.96011426 11.0774857-10.96011426ZM51.3832.1656v31.1784571h-4.0433714V.1656H51.3832Zm11.3062857 3.90297143v5.78537143h4.9912572l-1.0637715 2.23377144c-.4137714.8684-1.2465143 1.4077143-2.1728571 1.4077143h-1.7546286v17.8478857h-4.0433714V13.4946857h-3.5114857V9.8532h3.5114857V4.06857143h4.0433714ZM32.4366286 13.5370286c-3.9096572 0-7.0905715 3.1660571-7.0905715 7.0571428s3.1809143 7.0571429 7.0905715 7.0571429c3.9096571 0 7.0905714-3.1660572 7.0905714-7.0571429 0-3.8910857-3.1809143-7.0571428-7.0905714-7.0571428ZM21.2870857.1656v3.64148571H.3452V.1656h20.9418857Z"></path>
</svg>