<svg width="16" height="17" viewBox="0 0 16 17" fill="none" xmlns="http://www.w3.org/2000/svg">
<path fill-rule="evenodd" clip-rule="evenodd" d="M8.00004 13.5513C10.9456 13.5513 13.3334 11.1635 13.3334 8.21794C13.3334 5.27242 10.9456 2.8846 8.00004 2.8846C5.05452 2.8846 2.66671 5.27242 2.66671 8.21794C2.66671 11.1635 5.05452 13.5513 8.00004 13.5513ZM8.00004 14.8846C11.6819 14.8846 14.6667 11.8998 14.6667 8.21794C14.6667 4.53604 11.6819 1.55127 8.00004 1.55127C4.31814 1.55127 1.33337 4.53604 1.33337 8.21794C1.33337 11.8998 4.31814 14.8846 8.00004 14.8846Z" fill="#1B63CF"/>
<path d="M8.01046 4.65127C7.45079 4.66224 7.06671 5.03535 7.06671 5.56209C7.06671 6.09981 7.43982 6.48389 7.99948 6.48389C8.57012 6.48389 8.9542 6.09981 8.9542 5.57307C8.9542 5.04632 8.57012 4.66224 8.01046 4.65127Z" fill="#1B63CF"/>
<path d="M7.33337 7.55127H8.66671V11.5513H7.33337V7.55127Z" fill="#1B63CF"/>
</svg>
