<svg width="66" height="40" viewBox="0 0 66 40" fill="none" xmlns="http://www.w3.org/2000/svg">
    <rect width="65.7143" height="40" rx="6.36352" fill="#131735"/>
    <path d="M24.8477 15.6328L17.7213 30.5522L10.5979 15.6328H13.7533L17.7213 24.143L21.6948 15.6328H24.8477Z"
          fill="#6AE69E"/>
    <path d="M24.8478 9.14893H10.6021V11.7605H24.8478V9.14893Z" fill="#6AE69E"/>
    <path d="M45.0696 9.14795H42.1772V30.1881H45.0696V9.14795Z" fill="#6AE69E"/>
    <path d="M52.6658 15.6305V11.7588H49.7734V15.6305H47.4141V18.242H49.7734V30.1869H52.6658V18.242C52.6658 18.242 53.5357 18.242 53.7568 18.242C54.4122 18.242 55.0056 17.8568 55.2961 17.2507C55.4219 16.9882 56.0702 15.6305 56.0702 15.6305H52.6658Z"
          fill="#6AE69E"/>
    <path d="M32.2519 15.4819C28.0927 15.4819 24.7212 18.8048 24.7212 22.9043C24.7212 27.0037 28.0927 30.3266 32.2519 30.3266C36.411 30.3266 39.7825 27.0037 39.7825 22.9043C39.7825 18.8048 36.411 15.4819 32.2519 15.4819ZM32.2519 27.5396C29.6689 27.5396 27.5756 25.4645 27.5756 22.9043C27.5756 20.344 29.6694 18.2689 32.2519 18.2689C34.8348 18.2689 36.9281 20.344 36.9281 22.9043C36.9281 25.4645 34.8343 27.5396 32.2519 27.5396Z"
          fill="#6AE69E"/>
</svg>
